<svg width="320" height="150" viewBox="0 0 320 150" fill="none" xmlns="http://www.w3.org/2000/svg">
<g clip-path="url(#clip0_208_320)">
<path d="M0.333374 12C0.333374 5.37258 5.70596 0 12.3334 0H307.667C314.294 0 319.667 5.37258 319.667 12V138C319.667 144.627 314.294 150 307.667 150H12.3334C5.70597 150 0.333374 144.627 0.333374 138V12Z" fill="#FF9F00"/>
<g clip-path="url(#clip1_208_320)">
<mask id="mask0_208_320" style="mask-type:luminance" maskUnits="userSpaceOnUse" x="199" y="0" width="151" height="150">
<path d="M350 0H200V150H350V0Z" fill="white"/>
</mask>
<g mask="url(#mask0_208_320)">
<path fill-rule="evenodd" clip-rule="evenodd" d="M200 0H250V50H200V0ZM300 50H250V99.9997H200V150H250V99.9997H300V150H350V99.9997H300V50ZM300 50H350V0H300V50Z" fill="#FFB844"/>
</g>
</g>
<path d="M34.7014 81.268C31.8 81.268 29.1334 80.7347 26.7014 79.668C24.2694 78.6013 22.328 76.98 20.8774 74.804C19.4267 72.628 18.6587 69.876 18.5734 66.548H27.0214C27.064 67.956 27.384 69.236 27.9814 70.388C28.6214 71.4973 29.496 72.3933 30.6054 73.076C31.7574 73.716 33.1227 74.036 34.7014 74.036C36.1947 74.036 37.4747 73.7373 38.5414 73.14C39.608 72.5427 40.4187 71.7533 40.9734 70.772C41.528 69.7907 41.8054 68.66 41.8054 67.38C41.8054 65.844 41.4427 64.5853 40.7174 63.604C39.992 62.58 38.968 61.812 37.6454 61.3C36.3654 60.7453 34.872 60.468 33.1654 60.468H29.8374V53.364H33.1654C35.256 53.364 37.0054 52.8947 38.4134 51.956C39.8214 50.9747 40.5254 49.5027 40.5254 47.54C40.5254 45.9613 39.992 44.6813 38.9254 43.7C37.9014 42.7187 36.472 42.228 34.6374 42.228C32.632 42.228 31.0534 42.8253 29.9014 44.02C28.792 45.2147 28.1734 46.6867 28.0454 48.436H19.6614C19.7894 45.62 20.4934 43.2093 21.7734 41.204C23.0534 39.156 24.7814 37.5987 26.9574 36.532C29.176 35.4653 31.7574 34.932 34.7014 34.932C37.7734 34.932 40.376 35.4867 42.5094 36.596C44.6427 37.6627 46.264 39.1133 47.3734 40.948C48.4827 42.74 49.0374 44.724 49.0374 46.9C49.0374 48.6067 48.696 50.1427 48.0134 51.508C47.3734 52.8307 46.4987 53.94 45.3894 54.836C44.3227 55.732 43.128 56.3933 41.8054 56.82C43.4694 57.1187 44.92 57.7587 46.1574 58.74C47.4374 59.7213 48.44 60.98 49.1654 62.516C49.8907 64.0093 50.2534 65.7373 50.2534 67.7C50.2534 70.132 49.656 72.3933 48.4614 74.484C47.2667 76.532 45.5174 78.1747 43.2134 79.412C40.9094 80.6493 38.072 81.268 34.7014 81.268ZM68.4349 81.268C65.3202 81.268 62.6749 80.6707 60.4989 79.476C58.3229 78.2387 56.6375 76.6173 55.4429 74.612C54.2482 72.6067 53.5442 70.4733 53.3309 68.212H61.3309C61.7149 70.132 62.5255 71.604 63.7629 72.628C65.0002 73.652 66.5789 74.164 68.4989 74.164C70.3335 74.164 71.9122 73.6093 73.2349 72.5C74.6002 71.3907 75.6882 69.7267 76.4989 67.508C77.3095 65.2893 77.7575 62.516 77.8429 59.188C77.8429 59.1027 77.8429 59.0387 77.8429 58.996C77.8429 58.9107 77.8429 58.8467 77.8429 58.804C77.1602 59.9133 76.2429 60.916 75.0909 61.812C73.9389 62.708 72.6375 63.412 71.1869 63.924C69.7362 64.436 68.2215 64.692 66.6429 64.692C64.2109 64.692 61.8855 64.0947 59.6669 62.9C57.4909 61.7053 55.7202 60.02 54.3549 57.844C53.0322 55.668 52.3709 53.0867 52.3709 50.1C52.3709 47.3693 53.0322 44.852 54.3549 42.548C55.6775 40.244 57.5122 38.4093 59.8589 37.044C62.2482 35.636 65.0002 34.932 68.1149 34.932C71.5282 34.932 74.3869 35.572 76.6909 36.852C79.0375 38.0893 80.8935 39.7533 82.2589 41.844C83.6669 43.9347 84.6909 46.26 85.3309 48.82C85.9709 51.38 86.2909 53.9827 86.2909 56.628C86.2909 61.62 85.5655 65.972 84.1149 69.684C82.7069 73.3533 80.6802 76.212 78.0349 78.26C75.3895 80.2653 72.1895 81.268 68.4349 81.268ZM68.6909 57.396C70.2269 57.396 71.5922 57.076 72.7869 56.436C73.9815 55.7533 74.9415 54.8573 75.6669 53.748C76.3922 52.596 76.7549 51.316 76.7549 49.908C76.7549 48.4573 76.3922 47.156 75.6669 46.004C74.9415 44.852 73.9602 43.956 72.7229 43.316C71.5282 42.676 70.1629 42.356 68.6269 42.356C67.0909 42.356 65.7255 42.676 64.5309 43.316C63.3362 43.956 62.3975 44.8307 61.7149 45.94C61.0322 47.0493 60.6909 48.3507 60.6909 49.844C60.6909 51.3373 61.0322 52.66 61.7149 53.812C62.3975 54.9213 63.3362 55.796 64.5309 56.436C65.7682 57.076 67.1549 57.396 68.6909 57.396Z" fill="#12131A"/>
<path d="M20.6934 116.5L16.8534 102.5H18.6534L21.6734 114.5L25.1134 102.5H26.9734L30.3134 114.54L33.3734 102.5H35.1734L31.2534 116.5H29.3334L25.9934 104.92L22.5734 116.5H20.6934ZM39.9537 116.74C39.0204 116.74 38.1804 116.527 37.4337 116.1C36.687 115.673 36.0937 115.067 35.6537 114.28C35.227 113.493 35.0137 112.573 35.0137 111.52C35.0137 110.453 35.2337 109.527 35.6737 108.74C36.1137 107.953 36.707 107.347 37.4537 106.92C38.2137 106.493 39.0604 106.28 39.9937 106.28C40.9404 106.28 41.787 106.493 42.5337 106.92C43.2804 107.347 43.867 107.953 44.2937 108.74C44.7204 109.527 44.9337 110.453 44.9337 111.52C44.9337 112.573 44.7137 113.493 44.2737 114.28C43.847 115.067 43.2537 115.673 42.4937 116.1C41.747 116.527 40.9004 116.74 39.9537 116.74ZM39.9537 115.3C40.5404 115.3 41.0804 115.16 41.5737 114.88C42.067 114.6 42.4604 114.18 42.7537 113.62C43.0604 113.047 43.2137 112.34 43.2137 111.5C43.2137 110.66 43.067 109.96 42.7737 109.4C42.4804 108.84 42.087 108.42 41.5937 108.14C41.1004 107.86 40.567 107.72 39.9937 107.72C39.4337 107.72 38.9004 107.86 38.3937 108.14C37.9004 108.42 37.5004 108.84 37.1937 109.4C36.887 109.96 36.7337 110.667 36.7337 111.52C36.7337 112.347 36.887 113.047 37.1937 113.62C37.5004 114.18 37.8937 114.6 38.3737 114.88C38.867 115.16 39.3937 115.3 39.9537 115.3ZM46.6892 116.5V106.52H48.2092L48.3492 108.44C48.5625 107.987 48.8425 107.6 49.1892 107.28C49.5492 106.96 49.9692 106.713 50.4492 106.54C50.9425 106.367 51.5025 106.28 52.1292 106.28V108.04H51.6092C51.1692 108.04 50.7492 108.1 50.3492 108.22C49.9625 108.327 49.6158 108.507 49.3092 108.76C49.0158 109.013 48.7825 109.36 48.6092 109.8C48.4492 110.227 48.3692 110.767 48.3692 111.42V116.5H46.6892ZM57.5223 116.74C56.5489 116.74 55.6889 116.513 54.9423 116.06C54.2089 115.607 53.6356 114.987 53.2223 114.2C52.8223 113.4 52.6223 112.493 52.6223 111.48C52.6223 110.48 52.8223 109.587 53.2223 108.8C53.6356 108.013 54.2156 107.4 54.9623 106.96C55.7089 106.507 56.5689 106.28 57.5423 106.28C58.3556 106.28 59.0756 106.447 59.7023 106.78C60.3423 107.113 60.8289 107.58 61.1623 108.18V102.1H62.8423V116.5H61.3223L61.1623 114.86C60.9489 115.18 60.6756 115.487 60.3423 115.78C60.0089 116.06 59.6089 116.293 59.1423 116.48C58.6756 116.653 58.1356 116.74 57.5223 116.74ZM57.7223 115.28C58.3889 115.28 58.9756 115.127 59.4823 114.82C59.9889 114.5 60.3823 114.06 60.6623 113.5C60.9556 112.927 61.1023 112.26 61.1023 111.5C61.1023 110.753 60.9556 110.1 60.6623 109.54C60.3823 108.967 59.9889 108.527 59.4823 108.22C58.9756 107.9 58.3889 107.74 57.7223 107.74C57.0689 107.74 56.4823 107.9 55.9623 108.22C55.4556 108.527 55.0556 108.967 54.7623 109.54C54.4823 110.1 54.3423 110.753 54.3423 111.5C54.3423 112.26 54.4823 112.927 54.7623 113.5C55.0556 114.06 55.4556 114.5 55.9623 114.82C56.4823 115.127 57.0689 115.28 57.7223 115.28ZM75.9138 116.74C74.5405 116.74 73.3538 116.44 72.3538 115.84C71.3672 115.227 70.6005 114.38 70.0538 113.3C69.5205 112.207 69.2538 110.94 69.2538 109.5C69.2538 108.06 69.5205 106.8 70.0538 105.72C70.6005 104.627 71.3672 103.78 72.3538 103.18C73.3538 102.567 74.5405 102.26 75.9138 102.26C77.5272 102.26 78.8338 102.64 79.8338 103.4C80.8338 104.16 81.4738 105.233 81.7538 106.62H79.8938C79.6805 105.753 79.2472 105.06 78.5938 104.54C77.9405 104.007 77.0472 103.74 75.9138 103.74C74.9138 103.74 74.0405 103.973 73.2938 104.44C72.5605 104.893 71.9872 105.553 71.5738 106.42C71.1738 107.273 70.9738 108.3 70.9738 109.5C70.9738 110.7 71.1738 111.733 71.5738 112.6C71.9872 113.453 72.5605 114.113 73.2938 114.58C74.0405 115.033 74.9138 115.26 75.9138 115.26C77.0472 115.26 77.9405 115.007 78.5938 114.5C79.2472 113.98 79.6805 113.293 79.8938 112.44H81.7538C81.4738 113.787 80.8338 114.84 79.8338 115.6C78.8338 116.36 77.5272 116.74 75.9138 116.74ZM87.9888 116.74C87.0555 116.74 86.2155 116.527 85.4688 116.1C84.7222 115.673 84.1288 115.067 83.6888 114.28C83.2622 113.493 83.0488 112.573 83.0488 111.52C83.0488 110.453 83.2688 109.527 83.7088 108.74C84.1488 107.953 84.7422 107.347 85.4888 106.92C86.2488 106.493 87.0955 106.28 88.0288 106.28C88.9755 106.28 89.8222 106.493 90.5688 106.92C91.3155 107.347 91.9022 107.953 92.3288 108.74C92.7555 109.527 92.9688 110.453 92.9688 111.52C92.9688 112.573 92.7488 113.493 92.3088 114.28C91.8822 115.067 91.2888 115.673 90.5288 116.1C89.7822 116.527 88.9355 116.74 87.9888 116.74ZM87.9888 115.3C88.5755 115.3 89.1155 115.16 89.6088 114.88C90.1022 114.6 90.4955 114.18 90.7888 113.62C91.0955 113.047 91.2488 112.34 91.2488 111.5C91.2488 110.66 91.1022 109.96 90.8088 109.4C90.5155 108.84 90.1222 108.42 89.6288 108.14C89.1355 107.86 88.6022 107.72 88.0288 107.72C87.4688 107.72 86.9355 107.86 86.4288 108.14C85.9355 108.42 85.5355 108.84 85.2288 109.4C84.9222 109.96 84.7688 110.667 84.7688 111.52C84.7688 112.347 84.9222 113.047 85.2288 113.62C85.5355 114.18 85.9288 114.6 86.4088 114.88C86.9022 115.16 87.4288 115.3 87.9888 115.3ZM98.3643 116.74C97.591 116.74 96.911 116.587 96.3243 116.28C95.751 115.96 95.3043 115.48 94.9843 114.84C94.6776 114.2 94.5243 113.393 94.5243 112.42V106.52H96.2043V112.24C96.2043 113.253 96.4176 114.02 96.8443 114.54C97.2843 115.047 97.9176 115.3 98.7443 115.3C99.3043 115.3 99.811 115.167 100.264 114.9C100.718 114.62 101.071 114.22 101.324 113.7C101.591 113.167 101.724 112.52 101.724 111.76V106.52H103.404V116.5H101.884L101.784 114.74C101.478 115.353 101.018 115.84 100.404 116.2C99.8043 116.56 99.1243 116.74 98.3643 116.74ZM105.589 116.5V106.52H107.109L107.209 108.28C107.529 107.667 107.989 107.18 108.589 106.82C109.189 106.46 109.869 106.28 110.629 106.28C111.416 106.28 112.096 106.44 112.669 106.76C113.242 107.067 113.689 107.54 114.009 108.18C114.329 108.82 114.489 109.627 114.489 110.6V116.5H112.809V110.78C112.809 109.767 112.582 109.007 112.129 108.5C111.689 107.98 111.062 107.72 110.249 107.72C109.676 107.72 109.162 107.86 108.709 108.14C108.269 108.407 107.916 108.807 107.649 109.34C107.396 109.86 107.269 110.5 107.269 111.26V116.5H105.589ZM120.394 116.5C119.794 116.5 119.274 116.407 118.834 116.22C118.394 116.033 118.054 115.72 117.814 115.28C117.587 114.827 117.474 114.22 117.474 113.46V107.94H115.734V106.52H117.474L117.694 104.12H119.154V106.52H122.074V107.94H119.154V113.46C119.154 114.087 119.281 114.513 119.534 114.74C119.787 114.953 120.234 115.06 120.874 115.06H121.934V116.5H120.394Z" fill="#12131A"/>
</g>
<defs>
<clipPath id="clip0_208_320">
<path d="M0.333374 12C0.333374 5.37258 5.70596 0 12.3334 0H307.667C314.294 0 319.667 5.37258 319.667 12V138C319.667 144.627 314.294 150 307.667 150H12.3334C5.70597 150 0.333374 144.627 0.333374 138V12Z" fill="white"/>
</clipPath>
<clipPath id="clip1_208_320">
<rect width="150" height="150" fill="white" transform="translate(200)"/>
</clipPath>
</defs>
</svg>
