<svg width="320" height="150" viewBox="0 0 320 150" fill="none" xmlns="http://www.w3.org/2000/svg">
<g clip-path="url(#clip0_208_311)">
<path d="M0 12C0 5.37258 5.37258 0 12 0H307.333C313.961 0 319.333 5.37258 319.333 12V138C319.333 144.627 313.961 150 307.333 150H12C5.3726 150 0 144.627 0 138V12Z" fill="#D3A0FA"/>
<g clip-path="url(#clip1_208_311)">
<mask id="mask0_208_311" style="mask-type:luminance" maskUnits="userSpaceOnUse" x="199" y="0" width="151" height="150">
<path d="M349.5 150L349.5 0L199.5 -6.55671e-06L199.5 150L349.5 150Z" fill="white"/>
</mask>
<g mask="url(#mask0_208_311)">
<path fill-rule="evenodd" clip-rule="evenodd" d="M312.75 -1.60639e-06L312.75 20.625L312.75 21L312.754 21C312.954 29.7324 320.095 36.75 328.875 36.75L349.5 36.75L349.5 41.25L328.5 41.25C319.801 41.25 312.75 48.3015 312.75 57C312.75 65.6985 319.801 72.75 328.5 72.75L349.5 72.75L349.5 77.25L328.5 77.25C319.801 77.25 312.75 84.3015 312.75 93C312.75 101.698 319.801 108.75 328.5 108.75L349.5 108.75L349.5 114L328.5 114C319.801 114 312.75 121.051 312.75 129.75L312.75 150L308.25 150L308.25 129C308.25 120.301 301.198 113.25 292.5 113.25C283.801 113.25 276.75 120.301 276.75 129L276.75 150L272.25 150L272.25 129C272.25 120.301 265.198 113.25 256.5 113.25C247.801 113.25 240.75 120.301 240.75 129L240.75 150L236.25 150L236.25 129.75C236.25 121.051 229.198 114 220.5 114L219.75 114L199.5 114L199.5 108.75L220.5 108.75C229.198 108.75 236.25 101.698 236.25 93C236.25 84.3015 229.198 77.25 220.5 77.25L199.5 77.25L199.5 72.75L220.5 72.75C229.198 72.75 236.25 65.6985 236.25 57C236.25 48.3015 229.198 41.25 220.5 41.25L199.5 41.25L199.5 36.75L220.125 36.75C228.905 36.75 236.047 29.7324 236.245 21L236.25 21L236.25 20.625L236.25 -4.95031e-06L240.75 -4.75361e-06L240.75 21C240.75 29.6985 247.801 36.75 256.5 36.75C265.198 36.75 272.25 29.6985 272.25 21L272.25 -3.3767e-06L276.75 -3.18e-06L276.75 21C276.75 29.6985 283.801 36.75 292.5 36.75C301.198 36.75 308.25 29.6985 308.25 21L308.25 -1.80309e-06L312.75 -1.60639e-06ZM276.75 57C276.75 65.6985 283.801 72.75 292.5 72.75C301.198 72.75 308.25 65.6985 308.25 57C308.25 48.3015 301.198 41.25 292.5 41.25C283.801 41.25 276.75 48.3015 276.75 57ZM276.75 93C276.75 101.698 283.801 108.75 292.5 108.75C301.198 108.75 308.25 101.698 308.25 93C308.25 84.3015 301.198 77.25 292.5 77.25C283.801 77.25 276.75 84.3015 276.75 93ZM256.5 72.75C247.801 72.75 240.75 65.6985 240.75 57C240.75 48.3015 247.801 41.25 256.5 41.25C265.198 41.25 272.25 48.3015 272.25 57C272.25 65.6985 265.198 72.75 256.5 72.75ZM240.75 93C240.75 101.698 247.801 108.75 256.5 108.75C265.198 108.75 272.25 101.698 272.25 93C272.25 84.3015 265.198 77.25 256.5 77.25C247.801 77.25 240.75 84.3015 240.75 93Z" fill="#DEBAFC"/>
</g>
</g>
<path d="M17.664 80.5V74.164C20.3947 71.988 23.0187 69.812 25.536 67.636C28.096 65.46 30.4 63.3053 32.448 61.172C34.496 58.996 36.096 56.884 37.248 54.836C38.4427 52.788 39.04 50.804 39.04 48.884C39.04 47.6893 38.8267 46.6013 38.4 45.62C37.9733 44.596 37.312 43.7853 36.416 43.188C35.52 42.548 34.3253 42.228 32.832 42.228C31.3813 42.228 30.144 42.5693 29.12 43.252C28.096 43.9347 27.328 44.852 26.816 46.004C26.304 47.1133 26.048 48.372 26.048 49.78H17.728C17.8133 46.4947 18.5387 43.7427 19.904 41.524C21.2693 39.3053 23.104 37.6627 25.408 36.596C27.712 35.4867 30.272 34.932 33.088 34.932C36.2453 34.932 38.8907 35.5293 41.024 36.724C43.2 37.876 44.8427 39.4547 45.952 41.46C47.104 43.4653 47.68 45.7693 47.68 48.372C47.68 50.3347 47.3173 52.2547 46.592 54.132C45.9093 56.0093 44.9493 57.844 43.712 59.636C42.4747 61.3853 41.0667 63.0707 39.488 64.692C37.9093 66.3133 36.2667 67.8707 34.56 69.364C32.896 70.8147 31.2747 72.18 29.696 73.46H48.768V80.5H17.664ZM55.903 80.5L72.671 43.06H50.975V35.7H81.567V41.78L64.863 80.5H55.903ZM100.94 81.268C97.8675 81.268 95.0728 80.7133 92.5555 79.604C90.0808 78.4947 88.0968 76.9373 86.6035 74.932C85.1528 72.9267 84.4275 70.6013 84.4275 67.956C84.4275 66.1213 84.7262 64.4573 85.3235 62.964C85.9635 61.4707 86.8595 60.148 88.0115 58.996C89.1635 57.844 90.5075 56.9693 92.0435 56.372C90.0808 55.476 88.5022 54.196 87.3075 52.532C86.1128 50.868 85.5155 48.9907 85.5155 46.9C85.5155 44.8093 86.0915 42.8467 87.2435 41.012C88.4382 39.1773 90.1662 37.7053 92.4275 36.596C94.7315 35.4867 97.5688 34.932 100.94 34.932C104.353 34.932 107.19 35.4867 109.452 36.596C111.756 37.7053 113.484 39.1773 114.636 41.012C115.788 42.8467 116.364 44.8093 116.364 46.9C116.364 48.948 115.766 50.8253 114.572 52.532C113.377 54.196 111.798 55.476 109.836 56.372C111.414 57.012 112.758 57.908 113.868 59.06C115.02 60.1693 115.916 61.4707 116.556 62.964C117.196 64.4573 117.516 66.1213 117.516 67.956C117.516 70.6013 116.769 72.9267 115.276 74.932C113.782 76.9373 111.798 78.4947 109.324 79.604C106.849 80.7133 104.054 81.268 100.94 81.268ZM100.94 74.036C103.628 74.036 105.633 73.396 106.956 72.116C108.321 70.836 109.004 69.2147 109.004 67.252C109.004 65.076 108.3 63.3693 106.892 62.132C105.484 60.852 103.5 60.212 100.94 60.212C98.4222 60.212 96.4382 60.852 94.9875 62.132C93.5368 63.3693 92.8115 65.076 92.8115 67.252C92.8115 69.2147 93.4942 70.836 94.8595 72.116C96.2675 73.396 98.2942 74.036 100.94 74.036ZM100.94 53.876C103.158 53.876 104.865 53.3213 106.06 52.212C107.254 51.1027 107.852 49.6733 107.852 47.924C107.852 46.0467 107.233 44.596 105.996 43.572C104.801 42.5053 103.137 41.972 101.003 41.972C98.8275 41.972 97.1208 42.5053 95.8835 43.572C94.6888 44.596 94.0915 46.068 94.0915 47.988C94.0915 49.6947 94.6888 51.1027 95.8835 52.212C97.0782 53.3213 98.7635 53.876 100.94 53.876Z" fill="#12131A"/>
<path d="M20.76 116.5V103.88H16.58V102.5H26.62V103.88H22.44V116.5H20.76ZM30.6945 116.74C29.7612 116.74 28.9212 116.527 28.1745 116.1C27.4279 115.673 26.8345 115.067 26.3945 114.28C25.9679 113.493 25.7545 112.573 25.7545 111.52C25.7545 110.453 25.9745 109.527 26.4145 108.74C26.8545 107.953 27.4479 107.347 28.1945 106.92C28.9545 106.493 29.8012 106.28 30.7345 106.28C31.6812 106.28 32.5279 106.493 33.2745 106.92C34.0212 107.347 34.6079 107.953 35.0345 108.74C35.4612 109.527 35.6745 110.453 35.6745 111.52C35.6745 112.573 35.4545 113.493 35.0145 114.28C34.5879 115.067 33.9945 115.673 33.2345 116.1C32.4879 116.527 31.6412 116.74 30.6945 116.74ZM30.6945 115.3C31.2812 115.3 31.8212 115.16 32.3145 114.88C32.8079 114.6 33.2012 114.18 33.4945 113.62C33.8012 113.047 33.9545 112.34 33.9545 111.5C33.9545 110.66 33.8079 109.96 33.5145 109.4C33.2212 108.84 32.8279 108.42 32.3345 108.14C31.8412 107.86 31.3079 107.72 30.7345 107.72C30.1745 107.72 29.6412 107.86 29.1345 108.14C28.6412 108.42 28.2412 108.84 27.9345 109.4C27.6279 109.96 27.4745 110.667 27.4745 111.52C27.4745 112.347 27.6279 113.047 27.9345 113.62C28.2412 114.18 28.6345 114.6 29.1145 114.88C29.6079 115.16 30.1345 115.3 30.6945 115.3ZM40.9794 116.5C40.3794 116.5 39.8594 116.407 39.4194 116.22C38.9794 116.033 38.6394 115.72 38.3994 115.28C38.1727 114.827 38.0594 114.22 38.0594 113.46V107.94H36.3194V106.52H38.0594L38.2794 104.12H39.7394V106.52H42.6594V107.94H39.7394V113.46C39.7394 114.087 39.866 114.513 40.1194 114.74C40.3727 114.953 40.8194 115.06 41.4594 115.06H42.5194V116.5H40.9794ZM47.5128 116.74C46.6861 116.74 45.9995 116.6 45.4528 116.32C44.9195 116.04 44.5195 115.667 44.2528 115.2C43.9861 114.72 43.8528 114.207 43.8528 113.66C43.8528 112.98 44.0261 112.407 44.3728 111.94C44.7328 111.473 45.2328 111.113 45.8728 110.86C46.5128 110.607 47.2728 110.48 48.1528 110.48H50.8328C50.8328 109.867 50.7328 109.353 50.5328 108.94C50.3461 108.527 50.0661 108.22 49.6928 108.02C49.3195 107.807 48.8661 107.7 48.3328 107.7C47.6928 107.7 47.1328 107.867 46.6528 108.2C46.1728 108.52 45.8795 108.987 45.7728 109.6H44.0528C44.1328 108.88 44.3795 108.28 44.7928 107.8C45.2061 107.307 45.7261 106.933 46.3528 106.68C46.9795 106.413 47.6395 106.28 48.3328 106.28C49.2528 106.28 50.0195 106.453 50.6328 106.8C51.2595 107.133 51.7261 107.607 52.0328 108.22C52.3528 108.82 52.5128 109.527 52.5128 110.34V116.5H51.0128L50.9128 114.72C50.7795 115 50.6061 115.267 50.3928 115.52C50.1928 115.76 49.9528 115.973 49.6728 116.16C49.4061 116.333 49.0928 116.473 48.7328 116.58C48.3728 116.687 47.9661 116.74 47.5128 116.74ZM47.7728 115.32C48.2528 115.32 48.6795 115.227 49.0528 115.04C49.4395 114.84 49.7661 114.573 50.0328 114.24C50.2995 113.907 50.4995 113.533 50.6328 113.12C50.7661 112.707 50.8328 112.273 50.8328 111.82V111.78H48.2928C47.6395 111.78 47.1128 111.86 46.7128 112.02C46.3261 112.18 46.0461 112.393 45.8728 112.66C45.6995 112.927 45.6128 113.233 45.6128 113.58C45.6128 113.927 45.6928 114.233 45.8528 114.5C46.0128 114.767 46.2528 114.973 46.5728 115.12C46.9061 115.253 47.3061 115.32 47.7728 115.32ZM54.4722 116.5V102.1H56.1522V116.5H54.4722ZM69.2188 116.74C67.8454 116.74 66.6588 116.44 65.6588 115.84C64.6721 115.227 63.9054 114.38 63.3588 113.3C62.8254 112.207 62.5588 110.94 62.5588 109.5C62.5588 108.06 62.8254 106.8 63.3588 105.72C63.9054 104.627 64.6721 103.78 65.6588 103.18C66.6588 102.567 67.8454 102.26 69.2188 102.26C70.8321 102.26 72.1388 102.64 73.1388 103.4C74.1388 104.16 74.7788 105.233 75.0588 106.62H73.1988C72.9854 105.753 72.5521 105.06 71.8988 104.54C71.2454 104.007 70.3521 103.74 69.2188 103.74C68.2188 103.74 67.3454 103.973 66.5988 104.44C65.8654 104.893 65.2921 105.553 64.8788 106.42C64.4788 107.273 64.2788 108.3 64.2788 109.5C64.2788 110.7 64.4788 111.733 64.8788 112.6C65.2921 113.453 65.8654 114.113 66.5988 114.58C67.3454 115.033 68.2188 115.26 69.2188 115.26C70.3521 115.26 71.2454 115.007 71.8988 114.5C72.5521 113.98 72.9854 113.293 73.1988 112.44H75.0588C74.7788 113.787 74.1388 114.84 73.1388 115.6C72.1388 116.36 70.8321 116.74 69.2188 116.74ZM76.7737 116.5V102.1H78.4537V108.22C78.7871 107.607 79.2537 107.133 79.8537 106.8C80.4671 106.453 81.1404 106.28 81.8737 106.28C82.6337 106.28 83.3004 106.44 83.8737 106.76C84.4471 107.067 84.8871 107.54 85.1937 108.18C85.5137 108.82 85.6737 109.633 85.6737 110.62V116.5H84.0137V110.8C84.0137 109.773 83.8004 109.007 83.3737 108.5C82.9471 107.98 82.3271 107.72 81.5137 107.72C80.9404 107.72 80.4204 107.86 79.9537 108.14C79.4871 108.42 79.1204 108.82 78.8537 109.34C78.5871 109.86 78.4537 110.507 78.4537 111.28V116.5H76.7737ZM90.9386 116.74C90.1119 116.74 89.4253 116.6 88.8786 116.32C88.3453 116.04 87.9453 115.667 87.6786 115.2C87.4119 114.72 87.2786 114.207 87.2786 113.66C87.2786 112.98 87.4519 112.407 87.7986 111.94C88.1586 111.473 88.6586 111.113 89.2986 110.86C89.9386 110.607 90.6986 110.48 91.5786 110.48H94.2586C94.2586 109.867 94.1586 109.353 93.9586 108.94C93.7719 108.527 93.4919 108.22 93.1186 108.02C92.7453 107.807 92.2919 107.7 91.7586 107.7C91.1186 107.7 90.5586 107.867 90.0786 108.2C89.5986 108.52 89.3053 108.987 89.1986 109.6H87.4786C87.5586 108.88 87.8053 108.28 88.2186 107.8C88.6319 107.307 89.1519 106.933 89.7786 106.68C90.4053 106.413 91.0653 106.28 91.7586 106.28C92.6786 106.28 93.4453 106.453 94.0586 106.8C94.6853 107.133 95.1519 107.607 95.4586 108.22C95.7786 108.82 95.9386 109.527 95.9386 110.34V116.5H94.4386L94.3386 114.72C94.2053 115 94.0319 115.267 93.8186 115.52C93.6186 115.76 93.3786 115.973 93.0986 116.16C92.8319 116.333 92.5186 116.473 92.1586 116.58C91.7986 116.687 91.3919 116.74 90.9386 116.74ZM91.1986 115.32C91.6786 115.32 92.1053 115.227 92.4786 115.04C92.8653 114.84 93.1919 114.573 93.4586 114.24C93.7253 113.907 93.9253 113.533 94.0586 113.12C94.1919 112.707 94.2586 112.273 94.2586 111.82V111.78H91.7186C91.0653 111.78 90.5386 111.86 90.1386 112.02C89.7519 112.18 89.4719 112.393 89.2986 112.66C89.1253 112.927 89.0386 113.233 89.0386 113.58C89.0386 113.927 89.1186 114.233 89.2786 114.5C89.4386 114.767 89.6786 114.973 89.9986 115.12C90.3319 115.253 90.7319 115.32 91.1986 115.32ZM97.898 116.5V106.52H99.418L99.558 108.44C99.7713 107.987 100.051 107.6 100.398 107.28C100.758 106.96 101.178 106.713 101.658 106.54C102.151 106.367 102.711 106.28 103.338 106.28V108.04H102.818C102.378 108.04 101.958 108.1 101.558 108.22C101.171 108.327 100.825 108.507 100.518 108.76C100.225 109.013 99.9913 109.36 99.818 109.8C99.658 110.227 99.578 110.767 99.578 111.42V116.5H97.898ZM107.922 116.74C107.096 116.74 106.409 116.6 105.862 116.32C105.329 116.04 104.929 115.667 104.662 115.2C104.396 114.72 104.262 114.207 104.262 113.66C104.262 112.98 104.436 112.407 104.782 111.94C105.142 111.473 105.642 111.113 106.282 110.86C106.922 110.607 107.682 110.48 108.562 110.48H111.242C111.242 109.867 111.142 109.353 110.942 108.94C110.756 108.527 110.476 108.22 110.102 108.02C109.729 107.807 109.276 107.7 108.742 107.7C108.102 107.7 107.542 107.867 107.062 108.2C106.582 108.52 106.289 108.987 106.182 109.6H104.462C104.542 108.88 104.789 108.28 105.202 107.8C105.616 107.307 106.136 106.933 106.762 106.68C107.389 106.413 108.049 106.28 108.742 106.28C109.662 106.28 110.429 106.453 111.042 106.8C111.669 107.133 112.136 107.607 112.442 108.22C112.762 108.82 112.922 109.527 112.922 110.34V116.5H111.422L111.322 114.72C111.189 115 111.016 115.267 110.802 115.52C110.602 115.76 110.362 115.973 110.082 116.16C109.816 116.333 109.502 116.473 109.142 116.58C108.782 116.687 108.376 116.74 107.922 116.74ZM108.182 115.32C108.662 115.32 109.089 115.227 109.462 115.04C109.849 114.84 110.176 114.573 110.442 114.24C110.709 113.907 110.909 113.533 111.042 113.12C111.176 112.707 111.242 112.273 111.242 111.82V111.78H108.702C108.049 111.78 107.522 111.86 107.122 112.02C106.736 112.18 106.456 112.393 106.282 112.66C106.109 112.927 106.022 113.233 106.022 113.58C106.022 113.927 106.102 114.233 106.262 114.5C106.422 114.767 106.662 114.973 106.982 115.12C107.316 115.253 107.716 115.32 108.182 115.32ZM119.442 116.74C118.495 116.74 117.642 116.52 116.882 116.08C116.135 115.64 115.542 115.033 115.102 114.26C114.675 113.473 114.462 112.56 114.462 111.52C114.462 110.467 114.675 109.553 115.102 108.78C115.542 107.993 116.135 107.38 116.882 106.94C117.642 106.5 118.495 106.28 119.442 106.28C120.628 106.28 121.622 106.587 122.422 107.2C123.222 107.813 123.728 108.64 123.942 109.68H122.222C122.088 109.053 121.762 108.573 121.242 108.24C120.722 107.893 120.115 107.72 119.422 107.72C118.862 107.72 118.335 107.86 117.842 108.14C117.348 108.42 116.948 108.847 116.642 109.42C116.335 109.98 116.182 110.673 116.182 111.5C116.182 112.127 116.268 112.68 116.442 113.16C116.628 113.627 116.868 114.027 117.162 114.36C117.468 114.68 117.815 114.92 118.202 115.08C118.602 115.24 119.008 115.32 119.422 115.32C119.888 115.32 120.315 115.247 120.702 115.1C121.088 114.94 121.415 114.713 121.682 114.42C121.948 114.113 122.128 113.753 122.222 113.34H123.942C123.728 114.353 123.222 115.173 122.422 115.8C121.622 116.427 120.628 116.74 119.442 116.74ZM129.374 116.5C128.774 116.5 128.254 116.407 127.814 116.22C127.374 116.033 127.034 115.72 126.794 115.28C126.567 114.827 126.454 114.22 126.454 113.46V107.94H124.714V106.52H126.454L126.674 104.12H128.134V106.52H131.054V107.94H128.134V113.46C128.134 114.087 128.261 114.513 128.514 114.74C128.767 114.953 129.214 115.06 129.854 115.06H130.914V116.5H129.374ZM136.794 116.74C135.847 116.74 135.007 116.527 134.274 116.1C133.541 115.66 132.961 115.047 132.534 114.26C132.121 113.473 131.914 112.553 131.914 111.5C131.914 110.447 132.121 109.533 132.534 108.76C132.947 107.973 133.521 107.367 134.254 106.94C135.001 106.5 135.861 106.28 136.834 106.28C137.807 106.28 138.641 106.5 139.334 106.94C140.027 107.367 140.554 107.933 140.914 108.64C141.287 109.347 141.474 110.12 141.474 110.96C141.474 111.093 141.474 111.233 141.474 111.38C141.474 111.527 141.467 111.693 141.454 111.88H133.174V110.58H139.814C139.787 109.673 139.487 108.967 138.914 108.46C138.354 107.953 137.647 107.7 136.794 107.7C136.221 107.7 135.687 107.827 135.194 108.08C134.701 108.333 134.301 108.707 133.994 109.2C133.701 109.693 133.554 110.307 133.554 111.04V111.6C133.554 112.427 133.707 113.12 134.014 113.68C134.321 114.227 134.721 114.64 135.214 114.92C135.707 115.187 136.234 115.32 136.794 115.32C137.487 115.32 138.061 115.167 138.514 114.86C138.981 114.54 139.321 114.107 139.534 113.56H141.194C141.021 114.16 140.734 114.7 140.334 115.18C139.947 115.66 139.454 116.04 138.854 116.32C138.267 116.6 137.581 116.74 136.794 116.74ZM143.121 116.5V106.52H144.641L144.781 108.44C144.994 107.987 145.274 107.6 145.621 107.28C145.981 106.96 146.401 106.713 146.881 106.54C147.374 106.367 147.934 106.28 148.561 106.28V108.04H148.041C147.601 108.04 147.181 108.1 146.781 108.22C146.394 108.327 146.047 108.507 145.741 108.76C145.447 109.013 145.214 109.36 145.041 109.8C144.881 110.227 144.801 110.767 144.801 111.42V116.5H143.121ZM153.645 116.74C152.845 116.74 152.132 116.607 151.505 116.34C150.878 116.06 150.378 115.673 150.005 115.18C149.632 114.673 149.398 114.08 149.305 113.4H151.025C151.105 113.747 151.252 114.067 151.465 114.36C151.692 114.653 151.985 114.887 152.345 115.06C152.718 115.233 153.158 115.32 153.665 115.32C154.145 115.32 154.532 115.253 154.825 115.12C155.132 114.973 155.358 114.787 155.505 114.56C155.665 114.32 155.745 114.06 155.745 113.78C155.745 113.38 155.645 113.073 155.445 112.86C155.258 112.647 154.978 112.48 154.605 112.36C154.232 112.24 153.785 112.127 153.265 112.02C152.838 111.94 152.412 111.833 151.985 111.7C151.572 111.567 151.198 111.4 150.865 111.2C150.532 110.987 150.265 110.72 150.065 110.4C149.865 110.08 149.765 109.693 149.765 109.24C149.765 108.667 149.912 108.16 150.205 107.72C150.498 107.267 150.912 106.913 151.445 106.66C151.992 106.407 152.638 106.28 153.385 106.28C154.438 106.28 155.298 106.54 155.965 107.06C156.645 107.58 157.038 108.333 157.145 109.32H155.485C155.432 108.813 155.218 108.42 154.845 108.14C154.485 107.847 153.992 107.7 153.365 107.7C152.738 107.7 152.265 107.827 151.945 108.08C151.625 108.333 151.465 108.667 151.465 109.08C151.465 109.333 151.552 109.56 151.725 109.76C151.912 109.96 152.178 110.133 152.525 110.28C152.885 110.413 153.318 110.527 153.825 110.62C154.465 110.753 155.058 110.92 155.605 111.12C156.152 111.307 156.598 111.593 156.945 111.98C157.292 112.367 157.465 112.92 157.465 113.64C157.478 114.253 157.325 114.793 157.005 115.26C156.685 115.727 156.238 116.093 155.665 116.36C155.105 116.613 154.432 116.74 153.645 116.74Z" fill="#12131A"/>
</g>
<defs>
<clipPath id="clip0_208_311">
<path d="M0 12C0 5.37258 5.37258 0 12 0H307.333C313.961 0 319.333 5.37258 319.333 12V138C319.333 144.627 313.961 150 307.333 150H12C5.3726 150 0 144.627 0 138V12Z" fill="white"/>
</clipPath>
<clipPath id="clip1_208_311">
<rect width="150" height="150" fill="white" transform="translate(349.5) rotate(90)"/>
</clipPath>
</defs>
</svg>
