<svg width="320" height="150" viewBox="0 0 320 150" fill="none" xmlns="http://www.w3.org/2000/svg">
<g clip-path="url(#clip0_208_329)">
<path d="M0.666626 12C0.666626 5.37258 6.03921 0 12.6666 0H308C314.627 0 320 5.37258 320 12V138C320 144.627 314.627 150 308 150H12.6666C6.03923 150 0.666626 144.627 0.666626 138V12Z" fill="#FE8159"/>
<g clip-path="url(#clip1_208_329)">
<mask id="mask0_208_329" style="mask-type:luminance" maskUnits="userSpaceOnUse" x="200" y="0" width="151" height="150">
<path d="M200 0V150H350V0H200Z" fill="white"/>
</mask>
<g mask="url(#mask0_208_329)">
<path fill-rule="evenodd" clip-rule="evenodd" d="M232.442 130.99L232.442 150H242.558V130.99C242.558 123.572 248.572 117.558 255.99 117.558H256.027H275H293.972H294.01C301.428 117.558 307.442 123.572 307.442 130.99V150H317.558V130.99C317.558 123.572 323.572 117.558 330.991 117.558H331.027H350V107.442H331.027H330.991C323.572 107.442 317.558 101.429 317.558 94.0103V75V55.9901C317.558 48.5718 323.572 42.5582 330.991 42.5582L331.027 42.5582H350V32.4418H331.027H330.991C323.572 32.4418 317.558 26.4281 317.558 19.01V0L307.442 4.42207e-07V19.01C307.442 26.4281 301.428 32.4419 294.01 32.4419L293.974 32.4418H275H256.027L255.99 32.4419C248.572 32.4419 242.558 26.4282 242.558 19.01V3.27835e-06L232.442 3.72056e-06V19.01C232.442 26.4282 226.428 32.4419 219.01 32.4419L218.973 32.4418H200L200 42.5582H218.972L219.01 42.5582C226.428 42.5582 232.442 48.5718 232.442 55.9901L232.442 75V94.0103C232.442 101.429 226.428 107.442 219.01 107.442H218.973H200L200 117.558H218.972H219.01C226.428 117.558 232.442 123.572 232.442 130.99ZM307.442 75V55.9901C307.442 48.5718 301.428 42.5582 294.01 42.5582L293.972 42.5582H275H256.027L255.99 42.5582C248.572 42.5582 242.558 48.5718 242.558 55.9901V75V94.0103C242.558 101.429 248.572 107.442 255.99 107.442H256.027H275H293.974H294.01C301.428 107.442 307.442 101.429 307.442 94.0103V75Z" fill="#FA9A82"/>
</g>
</g>
<path d="M38.8746 81.268C34.736 81.268 31.1733 80.2867 28.1866 78.324C25.2 76.3613 22.896 73.652 21.2746 70.196C19.696 66.6973 18.9066 62.6653 18.9066 58.1C18.9066 53.5347 19.696 49.524 21.2746 46.068C22.896 42.5693 25.1786 39.8387 28.1226 37.876C31.1093 35.9133 34.6933 34.932 38.8746 34.932C43.0133 34.932 46.5546 35.9133 49.4986 37.876C52.4853 39.8387 54.768 42.5693 56.3466 46.068C57.968 49.524 58.7786 53.5347 58.7786 58.1C58.7786 62.6653 57.968 66.6973 56.3466 70.196C54.768 73.652 52.4853 76.3613 49.4986 78.324C46.5546 80.2867 43.0133 81.268 38.8746 81.268ZM38.8746 73.524C41.0506 73.524 42.9706 72.9053 44.6346 71.668C46.3413 70.388 47.6426 68.596 48.5386 66.292C49.4773 63.988 49.9466 61.2573 49.9466 58.1C49.9466 54.9 49.4773 52.1693 48.5386 49.908C47.6426 47.604 46.3413 45.8333 44.6346 44.596C42.9706 43.3587 41.0506 42.74 38.8746 42.74C36.6986 42.74 34.7573 43.3587 33.0506 44.596C31.3866 45.8333 30.0853 47.604 29.1466 49.908C28.208 52.1693 27.7386 54.9 27.7386 58.1C27.7386 61.2573 28.208 63.988 29.1466 66.292C30.0853 68.596 31.3866 70.388 33.0506 71.668C34.7573 72.9053 36.6986 73.524 38.8746 73.524ZM83.6576 80.5V72.372H61.6416V65.524L78.4096 35.7H92.2336V64.884H98.1216V72.372H92.2336V80.5H83.6576ZM70.8576 64.884H84.2336V40.948H83.9776L70.8576 64.884Z" fill="#12131A"/>
<path d="M22.6066 116.74C21.58 116.74 20.6866 116.553 19.9266 116.18C19.1666 115.807 18.58 115.287 18.1666 114.62C17.7533 113.953 17.5466 113.18 17.5466 112.3H19.3066C19.3066 112.847 19.4333 113.353 19.6866 113.82C19.94 114.273 20.3066 114.64 20.7866 114.92C21.28 115.187 21.8866 115.32 22.6066 115.32C23.2333 115.32 23.7666 115.22 24.2066 115.02C24.66 114.807 25 114.52 25.2266 114.16C25.4666 113.8 25.5866 113.393 25.5866 112.94C25.5866 112.38 25.4666 111.933 25.2266 111.6C25 111.253 24.68 110.973 24.2666 110.76C23.8666 110.547 23.4 110.36 22.8666 110.2C22.3466 110.04 21.8 109.86 21.2266 109.66C20.1466 109.287 19.34 108.827 18.8066 108.28C18.2866 107.72 18.0266 106.993 18.0266 106.1C18.0266 105.34 18.2 104.673 18.5466 104.1C18.9066 103.527 19.4133 103.08 20.0666 102.76C20.7333 102.427 21.52 102.26 22.4266 102.26C23.32 102.26 24.0933 102.427 24.7466 102.76C25.4133 103.093 25.9333 103.553 26.3066 104.14C26.68 104.713 26.8666 105.38 26.8666 106.14H25.1066C25.1066 105.753 25.0066 105.373 24.8066 105C24.6066 104.627 24.3 104.32 23.8866 104.08C23.4866 103.827 22.98 103.7 22.3666 103.7C21.86 103.687 21.4066 103.773 21.0066 103.96C20.62 104.133 20.3133 104.387 20.0866 104.72C19.8733 105.053 19.7666 105.46 19.7666 105.94C19.7666 106.393 19.86 106.76 20.0466 107.04C20.2466 107.32 20.5266 107.56 20.8866 107.76C21.26 107.947 21.6933 108.12 22.1866 108.28C22.68 108.44 23.2266 108.62 23.8266 108.82C24.5066 109.047 25.1066 109.327 25.6266 109.66C26.16 109.98 26.5733 110.393 26.8666 110.9C27.1733 111.407 27.3266 112.053 27.3266 112.84C27.3266 113.507 27.1466 114.14 26.7866 114.74C26.44 115.327 25.92 115.807 25.2266 116.18C24.5333 116.553 23.66 116.74 22.6066 116.74ZM33.4887 116.74C32.542 116.74 31.702 116.527 30.9687 116.1C30.2353 115.66 29.6553 115.047 29.2287 114.26C28.8153 113.473 28.6087 112.553 28.6087 111.5C28.6087 110.447 28.8153 109.533 29.2287 108.76C29.642 107.973 30.2153 107.367 30.9487 106.94C31.6953 106.5 32.5553 106.28 33.5287 106.28C34.502 106.28 35.3353 106.5 36.0287 106.94C36.722 107.367 37.2487 107.933 37.6087 108.64C37.982 109.347 38.1687 110.12 38.1687 110.96C38.1687 111.093 38.1687 111.233 38.1687 111.38C38.1687 111.527 38.162 111.693 38.1487 111.88H29.8687V110.58H36.5087C36.482 109.673 36.182 108.967 35.6087 108.46C35.0487 107.953 34.342 107.7 33.4887 107.7C32.9153 107.7 32.382 107.827 31.8887 108.08C31.3953 108.333 30.9953 108.707 30.6887 109.2C30.3953 109.693 30.2487 110.307 30.2487 111.04V111.6C30.2487 112.427 30.402 113.12 30.7087 113.68C31.0153 114.227 31.4153 114.64 31.9087 114.92C32.402 115.187 32.9287 115.32 33.4887 115.32C34.182 115.32 34.7553 115.167 35.2087 114.86C35.6753 114.54 36.0153 114.107 36.2287 113.56H37.8887C37.7153 114.16 37.4287 114.7 37.0287 115.18C36.642 115.66 36.1487 116.04 35.5487 116.32C34.962 116.6 34.2753 116.74 33.4887 116.74ZM39.8154 116.5V106.52H41.3354L41.4354 108.28C41.7554 107.667 42.2154 107.18 42.8154 106.82C43.4154 106.46 44.0954 106.28 44.8554 106.28C45.642 106.28 46.322 106.44 46.8954 106.76C47.4687 107.067 47.9154 107.54 48.2354 108.18C48.5554 108.82 48.7154 109.627 48.7154 110.6V116.5H47.0354V110.78C47.0354 109.767 46.8087 109.007 46.3554 108.5C45.9154 107.98 45.2887 107.72 44.4754 107.72C43.902 107.72 43.3887 107.86 42.9354 108.14C42.4954 108.407 42.142 108.807 41.8754 109.34C41.622 109.86 41.4954 110.5 41.4954 111.26V116.5H39.8154ZM54.6202 116.5C54.0202 116.5 53.5002 116.407 53.0602 116.22C52.6202 116.033 52.2802 115.72 52.0402 115.28C51.8136 114.827 51.7002 114.22 51.7002 113.46V107.94H49.9602V106.52H51.7002L51.9202 104.12H53.3802V106.52H56.3002V107.94H53.3802V113.46C53.3802 114.087 53.5069 114.513 53.7602 114.74C54.0136 114.953 54.4602 115.06 55.1002 115.06H56.1602V116.5H54.6202ZM62.0402 116.74C61.0936 116.74 60.2536 116.527 59.5202 116.1C58.7869 115.66 58.2069 115.047 57.7802 114.26C57.3669 113.473 57.1602 112.553 57.1602 111.5C57.1602 110.447 57.3669 109.533 57.7802 108.76C58.1936 107.973 58.7669 107.367 59.5002 106.94C60.2469 106.5 61.1069 106.28 62.0802 106.28C63.0536 106.28 63.8869 106.5 64.5802 106.94C65.2736 107.367 65.8002 107.933 66.1602 108.64C66.5336 109.347 66.7202 110.12 66.7202 110.96C66.7202 111.093 66.7202 111.233 66.7202 111.38C66.7202 111.527 66.7136 111.693 66.7002 111.88H58.4202V110.58H65.0602C65.0336 109.673 64.7336 108.967 64.1602 108.46C63.6002 107.953 62.8936 107.7 62.0402 107.7C61.4669 107.7 60.9336 107.827 60.4402 108.08C59.9469 108.333 59.5469 108.707 59.2402 109.2C58.9469 109.693 58.8002 110.307 58.8002 111.04V111.6C58.8002 112.427 58.9536 113.12 59.2602 113.68C59.5669 114.227 59.9669 114.64 60.4602 114.92C60.9536 115.187 61.4802 115.32 62.0402 115.32C62.7336 115.32 63.3069 115.167 63.7602 114.86C64.2269 114.54 64.5669 114.107 64.7802 113.56H66.4402C66.2669 114.16 65.9802 114.7 65.5802 115.18C65.1936 115.66 64.7002 116.04 64.1002 116.32C63.5136 116.6 62.8269 116.74 62.0402 116.74ZM68.3669 116.5V106.52H69.8869L69.9869 108.28C70.3069 107.667 70.7669 107.18 71.3669 106.82C71.9669 106.46 72.6469 106.28 73.4069 106.28C74.1936 106.28 74.8736 106.44 75.4469 106.76C76.0203 107.067 76.4669 107.54 76.7869 108.18C77.1069 108.82 77.2669 109.627 77.2669 110.6V116.5H75.5869V110.78C75.5869 109.767 75.3603 109.007 74.9069 108.5C74.4669 107.98 73.8403 107.72 73.0269 107.72C72.4536 107.72 71.9403 107.86 71.4869 108.14C71.0469 108.407 70.6936 108.807 70.4269 109.34C70.1736 109.86 70.0469 110.5 70.0469 111.26V116.5H68.3669ZM83.7918 116.74C82.8451 116.74 81.9918 116.52 81.2318 116.08C80.4851 115.64 79.8918 115.033 79.4518 114.26C79.0251 113.473 78.8118 112.56 78.8118 111.52C78.8118 110.467 79.0251 109.553 79.4518 108.78C79.8918 107.993 80.4851 107.38 81.2318 106.94C81.9918 106.5 82.8451 106.28 83.7918 106.28C84.9785 106.28 85.9718 106.587 86.7718 107.2C87.5718 107.813 88.0785 108.64 88.2918 109.68H86.5718C86.4385 109.053 86.1118 108.573 85.5918 108.24C85.0718 107.893 84.4651 107.72 83.7718 107.72C83.2118 107.72 82.6851 107.86 82.1918 108.14C81.6985 108.42 81.2985 108.847 80.9918 109.42C80.6851 109.98 80.5318 110.673 80.5318 111.5C80.5318 112.127 80.6185 112.68 80.7918 113.16C80.9785 113.627 81.2185 114.027 81.5118 114.36C81.8185 114.68 82.1651 114.92 82.5518 115.08C82.9518 115.24 83.3585 115.32 83.7718 115.32C84.2385 115.32 84.6651 115.247 85.0518 115.1C85.4385 114.94 85.7651 114.713 86.0318 114.42C86.2985 114.113 86.4785 113.753 86.5718 113.34H88.2918C88.0785 114.353 87.5718 115.173 86.7718 115.8C85.9718 116.427 84.9785 116.74 83.7918 116.74ZM94.5176 116.74C93.5709 116.74 92.7309 116.527 91.9976 116.1C91.2642 115.66 90.6842 115.047 90.2576 114.26C89.8442 113.473 89.6376 112.553 89.6376 111.5C89.6376 110.447 89.8442 109.533 90.2576 108.76C90.6709 107.973 91.2442 107.367 91.9776 106.94C92.7242 106.5 93.5842 106.28 94.5576 106.28C95.5309 106.28 96.3642 106.5 97.0576 106.94C97.7509 107.367 98.2776 107.933 98.6376 108.64C99.0109 109.347 99.1976 110.12 99.1976 110.96C99.1976 111.093 99.1976 111.233 99.1976 111.38C99.1976 111.527 99.1909 111.693 99.1776 111.88H90.8976V110.58H97.5376C97.5109 109.673 97.2109 108.967 96.6376 108.46C96.0776 107.953 95.3709 107.7 94.5176 107.7C93.9442 107.7 93.4109 107.827 92.9176 108.08C92.4242 108.333 92.0242 108.707 91.7176 109.2C91.4242 109.693 91.2776 110.307 91.2776 111.04V111.6C91.2776 112.427 91.4309 113.12 91.7376 113.68C92.0442 114.227 92.4442 114.64 92.9376 114.92C93.4309 115.187 93.9576 115.32 94.5176 115.32C95.2109 115.32 95.7842 115.167 96.2376 114.86C96.7042 114.54 97.0442 114.107 97.2576 113.56H98.9176C98.7442 114.16 98.4576 114.7 98.0576 115.18C97.6709 115.66 97.1776 116.04 96.5776 116.32C95.9909 116.6 95.3042 116.74 94.5176 116.74ZM111.757 116.74C110.384 116.74 109.197 116.44 108.197 115.84C107.211 115.227 106.444 114.38 105.897 113.3C105.364 112.207 105.097 110.94 105.097 109.5C105.097 108.06 105.364 106.8 105.897 105.72C106.444 104.627 107.211 103.78 108.197 103.18C109.197 102.567 110.384 102.26 111.757 102.26C113.371 102.26 114.677 102.64 115.677 103.4C116.677 104.16 117.317 105.233 117.597 106.62H115.737C115.524 105.753 115.091 105.06 114.437 104.54C113.784 104.007 112.891 103.74 111.757 103.74C110.757 103.74 109.884 103.973 109.137 104.44C108.404 104.893 107.831 105.553 107.417 106.42C107.017 107.273 106.817 108.3 106.817 109.5C106.817 110.7 107.017 111.733 107.417 112.6C107.831 113.453 108.404 114.113 109.137 114.58C109.884 115.033 110.757 115.26 111.757 115.26C112.891 115.26 113.784 115.007 114.437 114.5C115.091 113.98 115.524 113.293 115.737 112.44H117.597C117.317 113.787 116.677 114.84 115.677 115.6C114.677 116.36 113.371 116.74 111.757 116.74ZM123.832 116.74C122.899 116.74 122.059 116.527 121.312 116.1C120.566 115.673 119.972 115.067 119.532 114.28C119.106 113.493 118.892 112.573 118.892 111.52C118.892 110.453 119.112 109.527 119.552 108.74C119.992 107.953 120.586 107.347 121.332 106.92C122.092 106.493 122.939 106.28 123.872 106.28C124.819 106.28 125.666 106.493 126.412 106.92C127.159 107.347 127.746 107.953 128.172 108.74C128.599 109.527 128.812 110.453 128.812 111.52C128.812 112.573 128.592 113.493 128.152 114.28C127.726 115.067 127.132 115.673 126.372 116.1C125.626 116.527 124.779 116.74 123.832 116.74ZM123.832 115.3C124.419 115.3 124.959 115.16 125.452 114.88C125.946 114.6 126.339 114.18 126.632 113.62C126.939 113.047 127.092 112.34 127.092 111.5C127.092 110.66 126.946 109.96 126.652 109.4C126.359 108.84 125.966 108.42 125.472 108.14C124.979 107.86 124.446 107.72 123.872 107.72C123.312 107.72 122.779 107.86 122.272 108.14C121.779 108.42 121.379 108.84 121.072 109.4C120.766 109.96 120.612 110.667 120.612 111.52C120.612 112.347 120.766 113.047 121.072 113.62C121.379 114.18 121.772 114.6 122.252 114.88C122.746 115.16 123.272 115.3 123.832 115.3ZM134.208 116.74C133.434 116.74 132.754 116.587 132.168 116.28C131.594 115.96 131.148 115.48 130.828 114.84C130.521 114.2 130.368 113.393 130.368 112.42V106.52H132.048V112.24C132.048 113.253 132.261 114.02 132.688 114.54C133.128 115.047 133.761 115.3 134.588 115.3C135.148 115.3 135.654 115.167 136.108 114.9C136.561 114.62 136.914 114.22 137.168 113.7C137.434 113.167 137.568 112.52 137.568 111.76V106.52H139.248V116.5H137.728L137.628 114.74C137.321 115.353 136.861 115.84 136.248 116.2C135.648 116.56 134.968 116.74 134.208 116.74ZM141.433 116.5V106.52H142.953L143.053 108.28C143.373 107.667 143.833 107.18 144.433 106.82C145.033 106.46 145.713 106.28 146.473 106.28C147.259 106.28 147.939 106.44 148.513 106.76C149.086 107.067 149.533 107.54 149.853 108.18C150.173 108.82 150.333 109.627 150.333 110.6V116.5H148.653V110.78C148.653 109.767 148.426 109.007 147.973 108.5C147.533 107.98 146.906 107.72 146.093 107.72C145.519 107.72 145.006 107.86 144.553 108.14C144.113 108.407 143.759 108.807 143.493 109.34C143.239 109.86 143.113 110.5 143.113 111.26V116.5H141.433ZM156.237 116.5C155.637 116.5 155.117 116.407 154.677 116.22C154.237 116.033 153.897 115.72 153.657 115.28C153.431 114.827 153.317 114.22 153.317 113.46V107.94H151.577V106.52H153.317L153.537 104.12H154.997V106.52H157.917V107.94H154.997V113.46C154.997 114.087 155.124 114.513 155.377 114.74C155.631 114.953 156.077 115.06 156.717 115.06H157.777V116.5H156.237Z" fill="#12131A"/>
</g>
<defs>
<clipPath id="clip0_208_329">
<path d="M0.666626 12C0.666626 5.37258 6.03921 0 12.6666 0H308C314.627 0 320 5.37258 320 12V138C320 144.627 314.627 150 308 150H12.6666C6.03923 150 0.666626 144.627 0.666626 138V12Z" fill="white"/>
</clipPath>
<clipPath id="clip1_208_329">
<rect width="150" height="150" fill="white" transform="translate(200)"/>
</clipPath>
</defs>
</svg>
