<svg width="25" height="30" viewBox="0 0 25 30" fill="none" xmlns="http://www.w3.org/2000/svg">
<path d="M13.7671 4.36644V0H0V30H13.7671V25.6336C10.9469 25.6336 8.24219 24.5132 6.24805 22.519C4.25388 20.5248 3.13356 17.8202 3.13356 15C3.13356 12.1798 4.25388 9.47508 6.24805 7.48094C8.24219 5.48676 10.9469 4.36644 13.7671 4.36644Z" fill="#C27CF8"/>
<path d="M13.7676 4.36621V25.6333C16.5878 25.6333 19.2925 24.513 21.2867 22.5188C23.2809 20.5246 24.4011 17.82 24.4011 14.9998C24.4011 12.1796 23.2809 9.47485 21.2867 7.48071C19.2925 5.48654 16.5878 4.36621 13.7676 4.36621Z" fill="#C27CF8"/>
</svg>
