<svg width="188" height="30" viewBox="0 0 188 30" fill="none" xmlns="http://www.w3.org/2000/svg">
<path d="M13.7671 4.36644V0H0V30H13.7671V25.6336C10.9469 25.6336 8.24219 24.5132 6.24805 22.519C4.25388 20.5248 3.13356 17.8202 3.13356 15C3.13356 12.1798 4.25388 9.47508 6.24805 7.48094C8.24219 5.48676 10.9469 4.36644 13.7671 4.36644Z" fill="#C27CF8"/>
<path d="M13.7676 4.36621V25.6333C16.5878 25.6333 19.2925 24.513 21.2867 22.5188C23.2809 20.5246 24.4011 17.82 24.4011 14.9998C24.4011 12.1796 23.2809 9.47485 21.2867 7.48071C19.2925 5.48654 16.5878 4.36621 13.7676 4.36621Z" fill="#C27CF8"/>
<path d="M40.3352 21.716C39.0752 21.716 37.9892 21.446 37.0772 20.906C36.1772 20.354 35.4812 19.592 34.9892 18.62C34.5092 17.636 34.2692 16.502 34.2692 15.218C34.2692 13.934 34.5092 12.8 34.9892 11.816C35.4812 10.832 36.1772 10.064 37.0772 9.512C37.9892 8.96 39.0752 8.684 40.3352 8.684C41.8592 8.684 43.1072 9.062 44.0792 9.818C45.0512 10.574 45.6572 11.642 45.8972 13.022H43.2512C43.0952 12.35 42.7652 11.828 42.2612 11.456C41.7692 11.072 41.1212 10.88 40.3172 10.88C39.5732 10.88 38.9312 11.06 38.3912 11.42C37.8632 11.768 37.4552 12.266 37.1672 12.914C36.8792 13.55 36.7352 14.318 36.7352 15.218C36.7352 16.106 36.8792 16.874 37.1672 17.522C37.4552 18.17 37.8632 18.668 38.3912 19.016C38.9312 19.364 39.5732 19.538 40.3172 19.538C41.1212 19.538 41.7692 19.364 42.2612 19.016C42.7532 18.656 43.0772 18.158 43.2332 17.522H45.8972C45.6572 18.83 45.0512 19.856 44.0792 20.6C43.1072 21.344 41.8592 21.716 40.3352 21.716ZM47.1682 21.5V8.54H49.5982V13.778C49.8982 13.298 50.2942 12.92 50.7862 12.644C51.2902 12.356 51.8722 12.212 52.5322 12.212C53.2882 12.212 53.9242 12.374 54.4402 12.698C54.9562 13.01 55.3462 13.466 55.6102 14.066C55.8742 14.666 56.0062 15.41 56.0062 16.298V21.5H53.5942V16.514C53.5942 15.794 53.4442 15.242 53.1442 14.858C52.8442 14.462 52.3702 14.264 51.7222 14.264C51.3262 14.264 50.9662 14.36 50.6422 14.552C50.3182 14.744 50.0602 15.026 49.8682 15.398C49.6882 15.758 49.5982 16.19 49.5982 16.694V21.5H47.1682ZM60.6052 21.716C59.8492 21.716 59.2252 21.596 58.7332 21.356C58.2412 21.104 57.8752 20.774 57.6352 20.366C57.4072 19.946 57.2932 19.484 57.2932 18.98C57.2932 18.428 57.4312 17.942 57.7072 17.522C57.9952 17.102 58.4212 16.772 58.9852 16.532C59.5612 16.292 60.2812 16.172 61.1452 16.172H63.3952C63.3952 15.728 63.3352 15.362 63.2152 15.074C63.0952 14.774 62.9092 14.552 62.6572 14.408C62.4052 14.264 62.0692 14.192 61.6492 14.192C61.1932 14.192 60.8032 14.294 60.4792 14.498C60.1672 14.69 59.9752 14.99 59.9032 15.398H57.5452C57.6052 14.75 57.8152 14.192 58.1752 13.724C58.5472 13.244 59.0332 12.872 59.6332 12.608C60.2452 12.344 60.9232 12.212 61.6672 12.212C62.5192 12.212 63.2572 12.356 63.8812 12.644C64.5052 12.932 64.9852 13.346 65.3212 13.886C65.6572 14.426 65.8252 15.092 65.8252 15.884V21.5H63.7732L63.5032 20.114C63.3712 20.354 63.2152 20.57 63.0352 20.762C62.8552 20.954 62.6452 21.122 62.4052 21.266C62.1652 21.41 61.8952 21.518 61.5952 21.59C61.2952 21.674 60.9652 21.716 60.6052 21.716ZM61.1812 19.844C61.4932 19.844 61.7692 19.79 62.0092 19.682C62.2612 19.562 62.4772 19.406 62.6572 19.214C62.8372 19.01 62.9752 18.782 63.0712 18.53C63.1792 18.266 63.2512 17.984 63.2872 17.684V17.666H61.4332C61.0612 17.666 60.7552 17.714 60.5152 17.81C60.2872 17.894 60.1192 18.02 60.0112 18.188C59.9032 18.356 59.8492 18.548 59.8492 18.764C59.8492 19.004 59.9032 19.202 60.0112 19.358C60.1192 19.514 60.2752 19.634 60.4792 19.718C60.6832 19.802 60.9172 19.844 61.1812 19.844ZM67.3421 21.5V12.428H69.5021L69.7361 14.102C69.9521 13.706 70.2221 13.37 70.5461 13.094C70.8821 12.818 71.2601 12.602 71.6801 12.446C72.1121 12.29 72.5861 12.212 73.1021 12.212V14.786H72.2741C71.9141 14.786 71.5781 14.828 71.2661 14.912C70.9661 14.996 70.7021 15.134 70.4741 15.326C70.2461 15.506 70.0721 15.758 69.9521 16.082C69.8321 16.406 69.7721 16.814 69.7721 17.306V21.5H67.3421ZM77.0173 21.716C76.2613 21.716 75.6373 21.596 75.1453 21.356C74.6533 21.104 74.2873 20.774 74.0473 20.366C73.8193 19.946 73.7053 19.484 73.7053 18.98C73.7053 18.428 73.8433 17.942 74.1193 17.522C74.4073 17.102 74.8333 16.772 75.3973 16.532C75.9733 16.292 76.6933 16.172 77.5573 16.172H79.8073C79.8073 15.728 79.7473 15.362 79.6273 15.074C79.5073 14.774 79.3213 14.552 79.0693 14.408C78.8173 14.264 78.4813 14.192 78.0613 14.192C77.6053 14.192 77.2153 14.294 76.8913 14.498C76.5793 14.69 76.3873 14.99 76.3153 15.398H73.9573C74.0173 14.75 74.2273 14.192 74.5873 13.724C74.9593 13.244 75.4453 12.872 76.0453 12.608C76.6573 12.344 77.3353 12.212 78.0793 12.212C78.9313 12.212 79.6693 12.356 80.2933 12.644C80.9173 12.932 81.3973 13.346 81.7333 13.886C82.0693 14.426 82.2373 15.092 82.2373 15.884V21.5H80.1853L79.9153 20.114C79.7833 20.354 79.6273 20.57 79.4473 20.762C79.2673 20.954 79.0573 21.122 78.8173 21.266C78.5773 21.41 78.3073 21.518 78.0073 21.59C77.7073 21.674 77.3773 21.716 77.0173 21.716ZM77.5933 19.844C77.9053 19.844 78.1813 19.79 78.4213 19.682C78.6733 19.562 78.8893 19.406 79.0693 19.214C79.2493 19.01 79.3873 18.782 79.4833 18.53C79.5913 18.266 79.6633 17.984 79.6993 17.684V17.666H77.8453C77.4733 17.666 77.1673 17.714 76.9273 17.81C76.6993 17.894 76.5313 18.02 76.4233 18.188C76.3153 18.356 76.2613 18.548 76.2613 18.764C76.2613 19.004 76.3153 19.202 76.4233 19.358C76.5313 19.514 76.6873 19.634 76.8913 19.718C77.0953 19.802 77.3293 19.844 77.5933 19.844ZM88.1462 21.716C87.2342 21.716 86.4242 21.512 85.7162 21.104C85.0082 20.696 84.4562 20.138 84.0602 19.43C83.6642 18.722 83.4662 17.912 83.4662 17C83.4662 16.064 83.6642 15.242 84.0602 14.534C84.4562 13.814 85.0082 13.25 85.7162 12.842C86.4242 12.422 87.2342 12.212 88.1462 12.212C89.3102 12.212 90.2882 12.518 91.0802 13.13C91.8722 13.742 92.3762 14.582 92.5922 15.65H90.0182C89.9102 15.23 89.6822 14.9 89.3342 14.66C88.9982 14.42 88.5962 14.3 88.1282 14.3C87.7082 14.3 87.3302 14.408 86.9942 14.624C86.6702 14.828 86.4122 15.134 86.2202 15.542C86.0402 15.938 85.9502 16.412 85.9502 16.964C85.9502 17.384 86.0042 17.762 86.1122 18.098C86.2202 18.422 86.3702 18.704 86.5622 18.944C86.7542 19.172 86.9822 19.346 87.2462 19.466C87.5222 19.586 87.8162 19.646 88.1282 19.646C88.4402 19.646 88.7222 19.592 88.9742 19.484C89.2382 19.376 89.4602 19.226 89.6402 19.034C89.8202 18.83 89.9462 18.584 90.0182 18.296H92.5922C92.3762 19.34 91.8662 20.174 91.0622 20.798C90.2702 21.41 89.2982 21.716 88.1462 21.716ZM97.9183 21.5C97.2823 21.5 96.7243 21.404 96.2443 21.212C95.7763 21.008 95.4103 20.678 95.1463 20.222C94.8823 19.754 94.7503 19.118 94.7503 18.314V14.462H93.2023V12.428H94.7503L95.0203 9.962H97.1803V12.428H99.5743V14.462H97.1803V18.35C97.1803 18.758 97.2703 19.04 97.4503 19.196C97.6303 19.352 97.9363 19.43 98.3683 19.43H99.5563V21.5H97.9183ZM104.997 21.716C104.085 21.716 103.275 21.524 102.567 21.14C101.871 20.744 101.325 20.198 100.929 19.502C100.545 18.794 100.353 17.978 100.353 17.054C100.353 16.106 100.545 15.272 100.929 14.552C101.325 13.82 101.871 13.25 102.567 12.842C103.263 12.422 104.073 12.212 104.997 12.212C105.897 12.212 106.683 12.41 107.355 12.806C108.027 13.202 108.549 13.736 108.921 14.408C109.293 15.08 109.479 15.842 109.479 16.694C109.479 16.814 109.479 16.952 109.479 17.108C109.479 17.252 109.467 17.402 109.443 17.558H102.081V16.082H107.031C106.995 15.494 106.785 15.032 106.401 14.696C106.029 14.36 105.561 14.192 104.997 14.192C104.589 14.192 104.211 14.288 103.863 14.48C103.515 14.66 103.239 14.942 103.035 15.326C102.843 15.71 102.747 16.196 102.747 16.784V17.306C102.747 17.798 102.837 18.23 103.017 18.602C103.209 18.962 103.473 19.244 103.809 19.448C104.145 19.64 104.535 19.736 104.979 19.736C105.423 19.736 105.789 19.64 106.077 19.448C106.377 19.256 106.599 19.01 106.743 18.71H109.227C109.059 19.274 108.777 19.784 108.381 20.24C107.985 20.696 107.499 21.056 106.923 21.32C106.347 21.584 105.705 21.716 104.997 21.716ZM110.719 21.5V12.428H112.879L113.113 14.102C113.329 13.706 113.599 13.37 113.923 13.094C114.259 12.818 114.637 12.602 115.057 12.446C115.489 12.29 115.963 12.212 116.479 12.212V14.786H115.651C115.291 14.786 114.955 14.828 114.643 14.912C114.343 14.996 114.079 15.134 113.851 15.326C113.623 15.506 113.449 15.758 113.329 16.082C113.209 16.406 113.149 16.814 113.149 17.306V21.5H110.719ZM126.527 21.716C125.267 21.716 124.181 21.446 123.269 20.906C122.369 20.354 121.673 19.592 121.181 18.62C120.701 17.636 120.461 16.502 120.461 15.218C120.461 13.934 120.701 12.8 121.181 11.816C121.673 10.832 122.369 10.064 123.269 9.512C124.181 8.96 125.267 8.684 126.527 8.684C128.051 8.684 129.299 9.062 130.271 9.818C131.243 10.574 131.849 11.642 132.089 13.022H129.443C129.287 12.35 128.957 11.828 128.453 11.456C127.961 11.072 127.313 10.88 126.509 10.88C125.765 10.88 125.123 11.06 124.583 11.42C124.055 11.768 123.647 12.266 123.359 12.914C123.071 13.55 122.927 14.318 122.927 15.218C122.927 16.106 123.071 16.874 123.359 17.522C123.647 18.17 124.055 18.668 124.583 19.016C125.123 19.364 125.765 19.538 126.509 19.538C127.313 19.538 127.961 19.364 128.453 19.016C128.945 18.656 129.269 18.158 129.425 17.522H132.089C131.849 18.83 131.243 19.856 130.271 20.6C129.299 21.344 128.051 21.716 126.527 21.716ZM137.644 21.716C136.78 21.716 136 21.518 135.304 21.122C134.62 20.714 134.074 20.156 133.666 19.448C133.27 18.728 133.072 17.906 133.072 16.982C133.072 16.034 133.27 15.206 133.666 14.498C134.074 13.778 134.626 13.22 135.322 12.824C136.018 12.416 136.798 12.212 137.662 12.212C138.538 12.212 139.318 12.416 140.002 12.824C140.698 13.22 141.244 13.778 141.64 14.498C142.048 15.206 142.252 16.028 142.252 16.964C142.252 17.9 142.048 18.728 141.64 19.448C141.244 20.156 140.698 20.714 140.002 21.122C139.306 21.518 138.52 21.716 137.644 21.716ZM137.644 19.61C138.052 19.61 138.412 19.514 138.724 19.322C139.048 19.13 139.3 18.836 139.48 18.44C139.672 18.044 139.768 17.552 139.768 16.964C139.768 16.376 139.672 15.89 139.48 15.506C139.3 15.11 139.048 14.816 138.724 14.624C138.412 14.42 138.058 14.318 137.662 14.318C137.278 14.318 136.924 14.42 136.6 14.624C136.276 14.816 136.018 15.11 135.826 15.506C135.646 15.89 135.556 16.376 135.556 16.964C135.556 17.552 135.646 18.044 135.826 18.44C136.018 18.836 136.27 19.13 136.582 19.322C136.906 19.514 137.26 19.61 137.644 19.61ZM146.98 21.716C146.248 21.716 145.618 21.566 145.09 21.266C144.574 20.954 144.178 20.504 143.902 19.916C143.626 19.316 143.488 18.578 143.488 17.702V12.428H145.918V17.45C145.918 18.182 146.068 18.734 146.368 19.106C146.68 19.478 147.154 19.664 147.79 19.664C148.198 19.664 148.558 19.574 148.87 19.394C149.182 19.202 149.428 18.932 149.608 18.584C149.8 18.224 149.896 17.786 149.896 17.27V12.428H152.308V21.5H150.184L149.986 20.024C149.722 20.54 149.332 20.954 148.816 21.266C148.3 21.566 147.688 21.716 146.98 21.716ZM153.938 21.5V12.428H156.08L156.26 13.904C156.536 13.4 156.926 12.992 157.43 12.68C157.946 12.368 158.558 12.212 159.266 12.212C160.022 12.212 160.658 12.368 161.174 12.68C161.69 12.992 162.08 13.448 162.344 14.048C162.62 14.648 162.758 15.386 162.758 16.262V21.5H160.346V16.496C160.346 15.776 160.19 15.224 159.878 14.84C159.578 14.456 159.11 14.264 158.474 14.264C158.066 14.264 157.7 14.36 157.376 14.552C157.064 14.744 156.818 15.02 156.638 15.38C156.458 15.728 156.368 16.154 156.368 16.658V21.5H153.938ZM168.383 21.5C167.747 21.5 167.189 21.404 166.709 21.212C166.241 21.008 165.875 20.678 165.611 20.222C165.347 19.754 165.215 19.118 165.215 18.314V14.462H163.667V12.428H165.215L165.485 9.962H167.645V12.428H170.039V14.462H167.645V18.35C167.645 18.758 167.735 19.04 167.915 19.196C168.095 19.352 168.401 19.43 168.833 19.43H170.021V21.5H168.383ZM175.462 21.716C174.55 21.716 173.74 21.524 173.032 21.14C172.336 20.744 171.79 20.198 171.394 19.502C171.01 18.794 170.818 17.978 170.818 17.054C170.818 16.106 171.01 15.272 171.394 14.552C171.79 13.82 172.336 13.25 173.032 12.842C173.728 12.422 174.538 12.212 175.462 12.212C176.362 12.212 177.148 12.41 177.82 12.806C178.492 13.202 179.014 13.736 179.386 14.408C179.758 15.08 179.944 15.842 179.944 16.694C179.944 16.814 179.944 16.952 179.944 17.108C179.944 17.252 179.932 17.402 179.908 17.558H172.546V16.082H177.496C177.46 15.494 177.25 15.032 176.866 14.696C176.494 14.36 176.026 14.192 175.462 14.192C175.054 14.192 174.676 14.288 174.328 14.48C173.98 14.66 173.704 14.942 173.5 15.326C173.308 15.71 173.212 16.196 173.212 16.784V17.306C173.212 17.798 173.302 18.23 173.482 18.602C173.674 18.962 173.938 19.244 174.274 19.448C174.61 19.64 175 19.736 175.444 19.736C175.888 19.736 176.254 19.64 176.542 19.448C176.842 19.256 177.064 19.01 177.208 18.71H179.692C179.524 19.274 179.242 19.784 178.846 20.24C178.45 20.696 177.964 21.056 177.388 21.32C176.812 21.584 176.17 21.716 175.462 21.716ZM181.184 21.5V12.428H183.344L183.578 14.102C183.794 13.706 184.064 13.37 184.388 13.094C184.724 12.818 185.102 12.602 185.522 12.446C185.954 12.29 186.428 12.212 186.944 12.212V14.786H186.116C185.756 14.786 185.42 14.828 185.108 14.912C184.808 14.996 184.544 15.134 184.316 15.326C184.088 15.506 183.914 15.758 183.794 16.082C183.674 16.406 183.614 16.814 183.614 17.306V21.5H181.184Z" fill="#12131A"/>
</svg>
