<svg width="33" height="40" viewBox="0 0 33 40" fill="none" xmlns="http://www.w3.org/2000/svg">
<path d="M18.3562 5.82192V0H0V40H18.3562V34.1781C14.5959 34.1781 10.9896 32.6842 8.33074 30.0253C5.67183 27.3664 4.17808 23.7603 4.17808 20C4.17808 16.2397 5.67183 12.6334 8.33074 9.97459C10.9896 7.31568 14.5959 5.82192 18.3562 5.82192Z" fill="#C27CF8"/>
<path d="M18.3568 5.82178V34.1779C22.1171 34.1779 25.7234 32.6841 28.3823 30.0252C31.0412 27.3663 32.5349 23.7601 32.5349 19.9999C32.5349 16.2396 31.0412 12.6333 28.3823 9.97445C25.7234 7.31554 22.1171 5.82178 18.3568 5.82178Z" fill="#C27CF8"/>
</svg>
