<svg width="224" height="150" viewBox="0 0 224 150" fill="none" xmlns="http://www.w3.org/2000/svg">
<g clip-path="url(#clip0_210_956)">
<path d="M0 12C0 5.37258 5.37258 0 12 0H212C218.627 0 224 5.37258 224 12V138C224 144.627 218.627 150 212 150H12C5.37258 150 0 144.627 0 138V12Z" fill="#D3A0FA"/>
<g clip-path="url(#clip1_210_956)">
<mask id="mask0_210_956" style="mask-type:luminance" maskUnits="userSpaceOnUse" x="144" y="0" width="151" height="150">
<path d="M294.5 150L294.5 0L144.5 -6.55671e-06L144.5 150L294.5 150Z" fill="white"/>
</mask>
<g mask="url(#mask0_210_956)">
<path fill-rule="evenodd" clip-rule="evenodd" d="M257.75 -1.60639e-06L257.75 20.625L257.75 21L257.754 21C257.954 29.7324 265.095 36.75 273.875 36.75L294.5 36.75L294.5 41.25L273.5 41.25C264.801 41.25 257.75 48.3015 257.75 57C257.75 65.6985 264.801 72.75 273.5 72.75L294.5 72.75L294.5 77.25L273.5 77.25C264.801 77.25 257.75 84.3015 257.75 93C257.75 101.698 264.801 108.75 273.5 108.75L294.5 108.75L294.5 114L273.5 114C264.801 114 257.75 121.051 257.75 129.75L257.75 150L253.25 150L253.25 129C253.25 120.301 246.198 113.25 237.5 113.25C228.801 113.25 221.75 120.301 221.75 129L221.75 150L217.25 150L217.25 129C217.25 120.301 210.198 113.25 201.5 113.25C192.801 113.25 185.75 120.301 185.75 129L185.75 150L181.25 150L181.25 129.75C181.25 121.051 174.198 114 165.5 114L164.75 114L144.5 114L144.5 108.75L165.5 108.75C174.198 108.75 181.25 101.698 181.25 93C181.25 84.3015 174.198 77.25 165.5 77.25L144.5 77.25L144.5 72.75L165.5 72.75C174.198 72.75 181.25 65.6985 181.25 57C181.25 48.3015 174.198 41.25 165.5 41.25L144.5 41.25L144.5 36.75L165.125 36.75C173.905 36.75 181.047 29.7324 181.245 21L181.25 21L181.25 20.625L181.25 -4.95031e-06L185.75 -4.75361e-06L185.75 21C185.75 29.6985 192.801 36.75 201.5 36.75C210.198 36.75 217.25 29.6985 217.25 21L217.25 -3.3767e-06L221.75 -3.18e-06L221.75 21C221.75 29.6985 228.801 36.75 237.5 36.75C246.198 36.75 253.25 29.6985 253.25 21L253.25 -1.80309e-06L257.75 -1.60639e-06ZM221.75 57C221.75 65.6985 228.801 72.75 237.5 72.75C246.198 72.75 253.25 65.6985 253.25 57C253.25 48.3015 246.198 41.25 237.5 41.25C228.801 41.25 221.75 48.3015 221.75 57ZM221.75 93C221.75 101.698 228.801 108.75 237.5 108.75C246.198 108.75 253.25 101.698 253.25 93C253.25 84.3015 246.198 77.25 237.5 77.25C228.801 77.25 221.75 84.3015 221.75 93ZM201.5 72.75C192.801 72.75 185.75 65.6985 185.75 57C185.75 48.3015 192.801 41.25 201.5 41.25C210.198 41.25 217.25 48.3015 217.25 57C217.25 65.6985 210.198 72.75 201.5 72.75ZM185.75 93C185.75 101.698 192.801 108.75 201.5 108.75C210.198 108.75 217.25 101.698 217.25 93C217.25 84.3015 210.198 77.25 201.5 77.25C192.801 77.25 185.75 84.3015 185.75 93Z" fill="#DEBAFC"/>
</g>
</g>
<path d="M13.664 79V72.664C16.3947 70.488 19.0187 68.312 21.536 66.136C24.096 63.96 26.4 61.8053 28.448 59.672C30.496 57.496 32.096 55.384 33.248 53.336C34.4427 51.288 35.04 49.304 35.04 47.384C35.04 46.1893 34.8267 45.1013 34.4 44.12C33.9733 43.096 33.312 42.2853 32.416 41.688C31.52 41.048 30.3253 40.728 28.832 40.728C27.3813 40.728 26.144 41.0693 25.12 41.752C24.096 42.4347 23.328 43.352 22.816 44.504C22.304 45.6133 22.048 46.872 22.048 48.28H13.728C13.8133 44.9947 14.5387 42.2427 15.904 40.024C17.2693 37.8053 19.104 36.1627 21.408 35.096C23.712 33.9867 26.272 33.432 29.088 33.432C32.2453 33.432 34.8907 34.0293 37.024 35.224C39.2 36.376 40.8427 37.9547 41.952 39.96C43.104 41.9653 43.68 44.2693 43.68 46.872C43.68 48.8347 43.3173 50.7547 42.592 52.632C41.9093 54.5093 40.9493 56.344 39.712 58.136C38.4747 59.8853 37.0667 61.5707 35.488 63.192C33.9093 64.8133 32.2667 66.3707 30.56 67.864C28.896 69.3147 27.2747 70.68 25.696 71.96H44.768V79H13.664ZM51.903 79L68.671 41.56H46.975V34.2H77.567V40.28L60.863 79H51.903ZM96.9395 79.768C93.8675 79.768 91.0728 79.2133 88.5555 78.104C86.0808 76.9947 84.0968 75.4373 82.6035 73.432C81.1528 71.4267 80.4275 69.1013 80.4275 66.456C80.4275 64.6213 80.7262 62.9573 81.3235 61.464C81.9635 59.9707 82.8595 58.648 84.0115 57.496C85.1635 56.344 86.5075 55.4693 88.0435 54.872C86.0808 53.976 84.5022 52.696 83.3075 51.032C82.1128 49.368 81.5155 47.4907 81.5155 45.4C81.5155 43.3093 82.0915 41.3467 83.2435 39.512C84.4382 37.6773 86.1662 36.2053 88.4275 35.096C90.7315 33.9867 93.5688 33.432 96.9395 33.432C100.353 33.432 103.19 33.9867 105.452 35.096C107.756 36.2053 109.484 37.6773 110.636 39.512C111.788 41.3467 112.364 43.3093 112.364 45.4C112.364 47.448 111.766 49.3253 110.572 51.032C109.377 52.696 107.798 53.976 105.836 54.872C107.414 55.512 108.758 56.408 109.868 57.56C111.02 58.6693 111.916 59.9707 112.556 61.464C113.196 62.9573 113.516 64.6213 113.516 66.456C113.516 69.1013 112.769 71.4267 111.276 73.432C109.782 75.4373 107.798 76.9947 105.324 78.104C102.849 79.2133 100.054 79.768 96.9395 79.768ZM96.9395 72.536C99.6275 72.536 101.633 71.896 102.956 70.616C104.321 69.336 105.004 67.7147 105.004 65.752C105.004 63.576 104.3 61.8693 102.892 60.632C101.484 59.352 99.4995 58.712 96.9395 58.712C94.4222 58.712 92.4382 59.352 90.9875 60.632C89.5368 61.8693 88.8115 63.576 88.8115 65.752C88.8115 67.7147 89.4942 69.336 90.8595 70.616C92.2675 71.896 94.2942 72.536 96.9395 72.536ZM96.9395 52.376C99.1582 52.376 100.865 51.8213 102.06 50.712C103.254 49.6027 103.852 48.1733 103.852 46.424C103.852 44.5467 103.233 43.096 101.996 42.072C100.801 41.0053 99.1368 40.472 97.0035 40.472C94.8275 40.472 93.1208 41.0053 91.8835 42.072C90.6888 43.096 90.0915 44.568 90.0915 46.488C90.0915 48.1947 90.6888 49.6027 91.8835 50.712C93.0782 51.8213 94.7635 52.376 96.9395 52.376Z" fill="#12131A"/>
<path d="M16.76 118V105.38H12.58V104H22.62V105.38H18.44V118H16.76ZM26.6945 118.24C25.7612 118.24 24.9212 118.027 24.1745 117.6C23.4279 117.173 22.8345 116.567 22.3945 115.78C21.9679 114.993 21.7545 114.073 21.7545 113.02C21.7545 111.953 21.9745 111.027 22.4145 110.24C22.8545 109.453 23.4479 108.847 24.1945 108.42C24.9545 107.993 25.8012 107.78 26.7345 107.78C27.6812 107.78 28.5279 107.993 29.2745 108.42C30.0212 108.847 30.6079 109.453 31.0345 110.24C31.4612 111.027 31.6745 111.953 31.6745 113.02C31.6745 114.073 31.4545 114.993 31.0145 115.78C30.5879 116.567 29.9945 117.173 29.2345 117.6C28.4879 118.027 27.6412 118.24 26.6945 118.24ZM26.6945 116.8C27.2812 116.8 27.8212 116.66 28.3145 116.38C28.8079 116.1 29.2012 115.68 29.4945 115.12C29.8012 114.547 29.9545 113.84 29.9545 113C29.9545 112.16 29.8079 111.46 29.5145 110.9C29.2212 110.34 28.8279 109.92 28.3345 109.64C27.8412 109.36 27.3079 109.22 26.7345 109.22C26.1745 109.22 25.6412 109.36 25.1345 109.64C24.6412 109.92 24.2412 110.34 23.9345 110.9C23.6279 111.46 23.4745 112.167 23.4745 113.02C23.4745 113.847 23.6279 114.547 23.9345 115.12C24.2412 115.68 24.6345 116.1 25.1145 116.38C25.6079 116.66 26.1345 116.8 26.6945 116.8ZM36.9794 118C36.3794 118 35.8594 117.907 35.4194 117.72C34.9794 117.533 34.6394 117.22 34.3994 116.78C34.1727 116.327 34.0594 115.72 34.0594 114.96V109.44H32.3194V108.02H34.0594L34.2794 105.62H35.7394V108.02H38.6594V109.44H35.7394V114.96C35.7394 115.587 35.866 116.013 36.1194 116.24C36.3727 116.453 36.8194 116.56 37.4594 116.56H38.5194V118H36.9794ZM43.5128 118.24C42.6861 118.24 41.9995 118.1 41.4528 117.82C40.9195 117.54 40.5195 117.167 40.2528 116.7C39.9861 116.22 39.8528 115.707 39.8528 115.16C39.8528 114.48 40.0261 113.907 40.3728 113.44C40.7328 112.973 41.2328 112.613 41.8728 112.36C42.5128 112.107 43.2728 111.98 44.1528 111.98H46.8328C46.8328 111.367 46.7328 110.853 46.5328 110.44C46.3461 110.027 46.0661 109.72 45.6928 109.52C45.3195 109.307 44.8661 109.2 44.3328 109.2C43.6928 109.2 43.1328 109.367 42.6528 109.7C42.1728 110.02 41.8795 110.487 41.7728 111.1H40.0528C40.1328 110.38 40.3795 109.78 40.7928 109.3C41.2061 108.807 41.7261 108.433 42.3528 108.18C42.9795 107.913 43.6395 107.78 44.3328 107.78C45.2528 107.78 46.0195 107.953 46.6328 108.3C47.2595 108.633 47.7261 109.107 48.0328 109.72C48.3528 110.32 48.5128 111.027 48.5128 111.84V118H47.0128L46.9128 116.22C46.7795 116.5 46.6061 116.767 46.3928 117.02C46.1928 117.26 45.9528 117.473 45.6728 117.66C45.4061 117.833 45.0928 117.973 44.7328 118.08C44.3728 118.187 43.9661 118.24 43.5128 118.24ZM43.7728 116.82C44.2528 116.82 44.6795 116.727 45.0528 116.54C45.4395 116.34 45.7661 116.073 46.0328 115.74C46.2995 115.407 46.4995 115.033 46.6328 114.62C46.7661 114.207 46.8328 113.773 46.8328 113.32V113.28H44.2928C43.6395 113.28 43.1128 113.36 42.7128 113.52C42.3261 113.68 42.0461 113.893 41.8728 114.16C41.6995 114.427 41.6128 114.733 41.6128 115.08C41.6128 115.427 41.6928 115.733 41.8528 116C42.0128 116.267 42.2528 116.473 42.5728 116.62C42.9061 116.753 43.3061 116.82 43.7728 116.82ZM50.4722 118V103.6H52.1522V118H50.4722ZM65.2188 118.24C63.8454 118.24 62.6588 117.94 61.6588 117.34C60.6721 116.727 59.9054 115.88 59.3588 114.8C58.8254 113.707 58.5588 112.44 58.5588 111C58.5588 109.56 58.8254 108.3 59.3588 107.22C59.9054 106.127 60.6721 105.28 61.6588 104.68C62.6588 104.067 63.8454 103.76 65.2188 103.76C66.8321 103.76 68.1388 104.14 69.1388 104.9C70.1388 105.66 70.7788 106.733 71.0588 108.12H69.1988C68.9854 107.253 68.5521 106.56 67.8988 106.04C67.2454 105.507 66.3521 105.24 65.2188 105.24C64.2188 105.24 63.3454 105.473 62.5988 105.94C61.8654 106.393 61.2921 107.053 60.8788 107.92C60.4788 108.773 60.2788 109.8 60.2788 111C60.2788 112.2 60.4788 113.233 60.8788 114.1C61.2921 114.953 61.8654 115.613 62.5988 116.08C63.3454 116.533 64.2188 116.76 65.2188 116.76C66.3521 116.76 67.2454 116.507 67.8988 116C68.5521 115.48 68.9854 114.793 69.1988 113.94H71.0588C70.7788 115.287 70.1388 116.34 69.1388 117.1C68.1388 117.86 66.8321 118.24 65.2188 118.24ZM72.7737 118V103.6H74.4537V109.72C74.7871 109.107 75.2537 108.633 75.8537 108.3C76.4671 107.953 77.1404 107.78 77.8737 107.78C78.6337 107.78 79.3004 107.94 79.8737 108.26C80.4471 108.567 80.8871 109.04 81.1937 109.68C81.5137 110.32 81.6737 111.133 81.6737 112.12V118H80.0137V112.3C80.0137 111.273 79.8004 110.507 79.3737 110C78.9471 109.48 78.3271 109.22 77.5137 109.22C76.9404 109.22 76.4204 109.36 75.9537 109.64C75.4871 109.92 75.1204 110.32 74.8537 110.84C74.5871 111.36 74.4537 112.007 74.4537 112.78V118H72.7737ZM86.9386 118.24C86.1119 118.24 85.4253 118.1 84.8786 117.82C84.3453 117.54 83.9453 117.167 83.6786 116.7C83.4119 116.22 83.2786 115.707 83.2786 115.16C83.2786 114.48 83.4519 113.907 83.7986 113.44C84.1586 112.973 84.6586 112.613 85.2986 112.36C85.9386 112.107 86.6986 111.98 87.5786 111.98H90.2586C90.2586 111.367 90.1586 110.853 89.9586 110.44C89.7719 110.027 89.4919 109.72 89.1186 109.52C88.7453 109.307 88.2919 109.2 87.7586 109.2C87.1186 109.2 86.5586 109.367 86.0786 109.7C85.5986 110.02 85.3053 110.487 85.1986 111.1H83.4786C83.5586 110.38 83.8053 109.78 84.2186 109.3C84.6319 108.807 85.1519 108.433 85.7786 108.18C86.4053 107.913 87.0653 107.78 87.7586 107.78C88.6786 107.78 89.4453 107.953 90.0586 108.3C90.6853 108.633 91.1519 109.107 91.4586 109.72C91.7786 110.32 91.9386 111.027 91.9386 111.84V118H90.4386L90.3386 116.22C90.2053 116.5 90.0319 116.767 89.8186 117.02C89.6186 117.26 89.3786 117.473 89.0986 117.66C88.8319 117.833 88.5186 117.973 88.1586 118.08C87.7986 118.187 87.3919 118.24 86.9386 118.24ZM87.1986 116.82C87.6786 116.82 88.1053 116.727 88.4786 116.54C88.8653 116.34 89.1919 116.073 89.4586 115.74C89.7253 115.407 89.9253 115.033 90.0586 114.62C90.1919 114.207 90.2586 113.773 90.2586 113.32V113.28H87.7186C87.0653 113.28 86.5386 113.36 86.1386 113.52C85.7519 113.68 85.4719 113.893 85.2986 114.16C85.1253 114.427 85.0386 114.733 85.0386 115.08C85.0386 115.427 85.1186 115.733 85.2786 116C85.4386 116.267 85.6786 116.473 85.9986 116.62C86.3319 116.753 86.7319 116.82 87.1986 116.82ZM93.898 118V108.02H95.418L95.558 109.94C95.7713 109.487 96.0513 109.1 96.398 108.78C96.758 108.46 97.178 108.213 97.658 108.04C98.1513 107.867 98.7113 107.78 99.338 107.78V109.54H98.818C98.378 109.54 97.958 109.6 97.558 109.72C97.1713 109.827 96.8246 110.007 96.518 110.26C96.2246 110.513 95.9913 110.86 95.818 111.3C95.658 111.727 95.578 112.267 95.578 112.92V118H93.898ZM103.922 118.24C103.096 118.24 102.409 118.1 101.862 117.82C101.329 117.54 100.929 117.167 100.662 116.7C100.396 116.22 100.262 115.707 100.262 115.16C100.262 114.48 100.436 113.907 100.782 113.44C101.142 112.973 101.642 112.613 102.282 112.36C102.922 112.107 103.682 111.98 104.562 111.98H107.242C107.242 111.367 107.142 110.853 106.942 110.44C106.756 110.027 106.476 109.72 106.102 109.52C105.729 109.307 105.276 109.2 104.742 109.2C104.102 109.2 103.542 109.367 103.062 109.7C102.582 110.02 102.289 110.487 102.182 111.1H100.462C100.542 110.38 100.789 109.78 101.202 109.3C101.616 108.807 102.136 108.433 102.762 108.18C103.389 107.913 104.049 107.78 104.742 107.78C105.662 107.78 106.429 107.953 107.042 108.3C107.669 108.633 108.136 109.107 108.442 109.72C108.762 110.32 108.922 111.027 108.922 111.84V118H107.422L107.322 116.22C107.189 116.5 107.016 116.767 106.802 117.02C106.602 117.26 106.362 117.473 106.082 117.66C105.816 117.833 105.502 117.973 105.142 118.08C104.782 118.187 104.376 118.24 103.922 118.24ZM104.182 116.82C104.662 116.82 105.089 116.727 105.462 116.54C105.849 116.34 106.176 116.073 106.442 115.74C106.709 115.407 106.909 115.033 107.042 114.62C107.176 114.207 107.242 113.773 107.242 113.32V113.28H104.702C104.049 113.28 103.522 113.36 103.122 113.52C102.736 113.68 102.456 113.893 102.282 114.16C102.109 114.427 102.022 114.733 102.022 115.08C102.022 115.427 102.102 115.733 102.262 116C102.422 116.267 102.662 116.473 102.982 116.62C103.316 116.753 103.716 116.82 104.182 116.82ZM115.442 118.24C114.495 118.24 113.642 118.02 112.882 117.58C112.135 117.14 111.542 116.533 111.102 115.76C110.675 114.973 110.462 114.06 110.462 113.02C110.462 111.967 110.675 111.053 111.102 110.28C111.542 109.493 112.135 108.88 112.882 108.44C113.642 108 114.495 107.78 115.442 107.78C116.628 107.78 117.622 108.087 118.422 108.7C119.222 109.313 119.728 110.14 119.942 111.18H118.222C118.088 110.553 117.762 110.073 117.242 109.74C116.722 109.393 116.115 109.22 115.422 109.22C114.862 109.22 114.335 109.36 113.842 109.64C113.348 109.92 112.948 110.347 112.642 110.92C112.335 111.48 112.182 112.173 112.182 113C112.182 113.627 112.268 114.18 112.442 114.66C112.628 115.127 112.868 115.527 113.162 115.86C113.468 116.18 113.815 116.42 114.202 116.58C114.602 116.74 115.008 116.82 115.422 116.82C115.888 116.82 116.315 116.747 116.702 116.6C117.088 116.44 117.415 116.213 117.682 115.92C117.948 115.613 118.128 115.253 118.222 114.84H119.942C119.728 115.853 119.222 116.673 118.422 117.3C117.622 117.927 116.628 118.24 115.442 118.24ZM125.374 118C124.774 118 124.254 117.907 123.814 117.72C123.374 117.533 123.034 117.22 122.794 116.78C122.567 116.327 122.454 115.72 122.454 114.96V109.44H120.714V108.02H122.454L122.674 105.62H124.134V108.02H127.054V109.44H124.134V114.96C124.134 115.587 124.261 116.013 124.514 116.24C124.767 116.453 125.214 116.56 125.854 116.56H126.914V118H125.374ZM132.794 118.24C131.847 118.24 131.007 118.027 130.274 117.6C129.541 117.16 128.961 116.547 128.534 115.76C128.121 114.973 127.914 114.053 127.914 113C127.914 111.947 128.121 111.033 128.534 110.26C128.947 109.473 129.521 108.867 130.254 108.44C131.001 108 131.861 107.78 132.834 107.78C133.807 107.78 134.641 108 135.334 108.44C136.027 108.867 136.554 109.433 136.914 110.14C137.287 110.847 137.474 111.62 137.474 112.46C137.474 112.593 137.474 112.733 137.474 112.88C137.474 113.027 137.467 113.193 137.454 113.38H129.174V112.08H135.814C135.787 111.173 135.487 110.467 134.914 109.96C134.354 109.453 133.647 109.2 132.794 109.2C132.221 109.2 131.687 109.327 131.194 109.58C130.701 109.833 130.301 110.207 129.994 110.7C129.701 111.193 129.554 111.807 129.554 112.54V113.1C129.554 113.927 129.707 114.62 130.014 115.18C130.321 115.727 130.721 116.14 131.214 116.42C131.707 116.687 132.234 116.82 132.794 116.82C133.487 116.82 134.061 116.667 134.514 116.36C134.981 116.04 135.321 115.607 135.534 115.06H137.194C137.021 115.66 136.734 116.2 136.334 116.68C135.947 117.16 135.454 117.54 134.854 117.82C134.267 118.1 133.581 118.24 132.794 118.24ZM139.121 118V108.02H140.641L140.781 109.94C140.994 109.487 141.274 109.1 141.621 108.78C141.981 108.46 142.401 108.213 142.881 108.04C143.374 107.867 143.934 107.78 144.561 107.78V109.54H144.041C143.601 109.54 143.181 109.6 142.781 109.72C142.394 109.827 142.047 110.007 141.741 110.26C141.447 110.513 141.214 110.86 141.041 111.3C140.881 111.727 140.801 112.267 140.801 112.92V118H139.121ZM149.645 118.24C148.845 118.24 148.132 118.107 147.505 117.84C146.878 117.56 146.378 117.173 146.005 116.68C145.632 116.173 145.398 115.58 145.305 114.9H147.025C147.105 115.247 147.252 115.567 147.465 115.86C147.692 116.153 147.985 116.387 148.345 116.56C148.718 116.733 149.158 116.82 149.665 116.82C150.145 116.82 150.532 116.753 150.825 116.62C151.132 116.473 151.358 116.287 151.505 116.06C151.665 115.82 151.745 115.56 151.745 115.28C151.745 114.88 151.645 114.573 151.445 114.36C151.258 114.147 150.978 113.98 150.605 113.86C150.232 113.74 149.785 113.627 149.265 113.52C148.838 113.44 148.412 113.333 147.985 113.2C147.572 113.067 147.198 112.9 146.865 112.7C146.532 112.487 146.265 112.22 146.065 111.9C145.865 111.58 145.765 111.193 145.765 110.74C145.765 110.167 145.912 109.66 146.205 109.22C146.498 108.767 146.912 108.413 147.445 108.16C147.992 107.907 148.638 107.78 149.385 107.78C150.438 107.78 151.298 108.04 151.965 108.56C152.645 109.08 153.038 109.833 153.145 110.82H151.485C151.432 110.313 151.218 109.92 150.845 109.64C150.485 109.347 149.992 109.2 149.365 109.2C148.738 109.2 148.265 109.327 147.945 109.58C147.625 109.833 147.465 110.167 147.465 110.58C147.465 110.833 147.552 111.06 147.725 111.26C147.912 111.46 148.178 111.633 148.525 111.78C148.885 111.913 149.318 112.027 149.825 112.12C150.465 112.253 151.058 112.42 151.605 112.62C152.152 112.807 152.598 113.093 152.945 113.48C153.292 113.867 153.465 114.42 153.465 115.14C153.478 115.753 153.325 116.293 153.005 116.76C152.685 117.227 152.238 117.593 151.665 117.86C151.105 118.113 150.432 118.24 149.645 118.24Z" fill="#12131A"/>
</g>
<defs>
<clipPath id="clip0_210_956">
<path d="M0 12C0 5.37258 5.37258 0 12 0H212C218.627 0 224 5.37258 224 12V138C224 144.627 218.627 150 212 150H12C5.37258 150 0 144.627 0 138V12Z" fill="white"/>
</clipPath>
<clipPath id="clip1_210_956">
<rect width="150" height="150" fill="white" transform="translate(294.5) rotate(90)"/>
</clipPath>
</defs>
</svg>
