<svg width="224" height="150" viewBox="0 0 224 150" fill="none" xmlns="http://www.w3.org/2000/svg">
<g clip-path="url(#clip0_210_974)">
<path d="M0 12C0 5.37258 5.37258 0 12 0H212C218.627 0 224 5.37258 224 12V138C224 144.627 218.627 150 212 150H12C5.37258 150 0 144.627 0 138V12Z" fill="#FE8159"/>
<g clip-path="url(#clip1_210_974)">
<mask id="mask0_210_974" style="mask-type:luminance" maskUnits="userSpaceOnUse" x="144" y="0" width="151" height="150">
<path d="M144.333 0V150H294.333V0H144.333Z" fill="white"/>
</mask>
<g mask="url(#mask0_210_974)">
<path fill-rule="evenodd" clip-rule="evenodd" d="M176.775 130.99L176.775 150H186.892V130.99C186.892 123.572 192.905 117.558 200.324 117.558H200.36H219.333H238.305H238.344C245.761 117.558 251.775 123.572 251.775 130.99V150H261.891V130.99C261.891 123.572 267.906 117.558 275.324 117.558H275.36H294.333V107.442H275.36H275.324C267.906 107.442 261.891 101.429 261.891 94.0103V75V55.9901C261.891 48.5718 267.906 42.5582 275.324 42.5582L275.36 42.5582H294.333V32.4418H275.36H275.324C267.906 32.4418 261.891 26.4281 261.891 19.01V0L251.775 4.42207e-07V19.01C251.775 26.4281 245.761 32.4419 238.344 32.4419L238.307 32.4418H219.333H200.36L200.324 32.4419C192.905 32.4419 186.892 26.4282 186.892 19.01V3.27835e-06L176.775 3.72056e-06V19.01C176.775 26.4282 170.762 32.4419 163.343 32.4419L163.307 32.4418H144.333L144.333 42.5582H163.306L163.343 42.5582C170.762 42.5582 176.775 48.5718 176.775 55.9901L176.775 75V94.0103C176.775 101.429 170.762 107.442 163.343 107.442H163.307H144.333L144.333 117.558H163.306H163.343C170.762 117.558 176.775 123.572 176.775 130.99ZM251.775 75V55.9901C251.775 48.5718 245.761 42.5582 238.344 42.5582L238.305 42.5582H219.333H200.36L200.324 42.5582C192.905 42.5582 186.892 48.5718 186.892 55.9901V75V94.0103C186.892 101.429 192.905 107.442 200.324 107.442H200.36H219.333H238.307H238.344C245.761 107.442 251.775 101.429 251.775 94.0103V75Z" fill="#FA9A82"/>
</g>
</g>
<path d="M34.208 79.768C30.0693 79.768 26.5067 78.7867 23.52 76.824C20.5333 74.8613 18.2293 72.152 16.608 68.696C15.0293 65.1973 14.24 61.1653 14.24 56.6C14.24 52.0347 15.0293 48.024 16.608 44.568C18.2293 41.0693 20.512 38.3387 23.456 36.376C26.4427 34.4133 30.0267 33.432 34.208 33.432C38.3467 33.432 41.888 34.4133 44.832 36.376C47.8187 38.3387 50.1013 41.0693 51.68 44.568C53.3013 48.024 54.112 52.0347 54.112 56.6C54.112 61.1653 53.3013 65.1973 51.68 68.696C50.1013 72.152 47.8187 74.8613 44.832 76.824C41.888 78.7867 38.3467 79.768 34.208 79.768ZM34.208 72.024C36.384 72.024 38.304 71.4053 39.968 70.168C41.6747 68.888 42.976 67.096 43.872 64.792C44.8107 62.488 45.28 59.7573 45.28 56.6C45.28 53.4 44.8107 50.6693 43.872 48.408C42.976 46.104 41.6747 44.3333 39.968 43.096C38.304 41.8587 36.384 41.24 34.208 41.24C32.032 41.24 30.0907 41.8587 28.384 43.096C26.72 44.3333 25.4187 46.104 24.48 48.408C23.5413 50.6693 23.072 53.4 23.072 56.6C23.072 59.7573 23.5413 62.488 24.48 64.792C25.4187 67.096 26.72 68.888 28.384 70.168C30.0907 71.4053 32.032 72.024 34.208 72.024ZM78.991 79V70.872H56.975V64.024L73.743 34.2H87.567V63.384H93.455V70.872H87.567V79H78.991ZM66.191 63.384H79.567V39.448H79.311L66.191 63.384Z" fill="#12131A"/>
<path d="M17.94 118.24C16.9133 118.24 16.02 118.053 15.26 117.68C14.5 117.307 13.9133 116.787 13.5 116.12C13.0867 115.453 12.88 114.68 12.88 113.8H14.64C14.64 114.347 14.7667 114.853 15.02 115.32C15.2733 115.773 15.64 116.14 16.12 116.42C16.6133 116.687 17.22 116.82 17.94 116.82C18.5667 116.82 19.1 116.72 19.54 116.52C19.9933 116.307 20.3333 116.02 20.56 115.66C20.8 115.3 20.92 114.893 20.92 114.44C20.92 113.88 20.8 113.433 20.56 113.1C20.3333 112.753 20.0133 112.473 19.6 112.26C19.2 112.047 18.7333 111.86 18.2 111.7C17.68 111.54 17.1333 111.36 16.56 111.16C15.48 110.787 14.6733 110.327 14.14 109.78C13.62 109.22 13.36 108.493 13.36 107.6C13.36 106.84 13.5333 106.173 13.88 105.6C14.24 105.027 14.7467 104.58 15.4 104.26C16.0667 103.927 16.8533 103.76 17.76 103.76C18.6533 103.76 19.4267 103.927 20.08 104.26C20.7467 104.593 21.2667 105.053 21.64 105.64C22.0133 106.213 22.2 106.88 22.2 107.64H20.44C20.44 107.253 20.34 106.873 20.14 106.5C19.94 106.127 19.6333 105.82 19.22 105.58C18.82 105.327 18.3133 105.2 17.7 105.2C17.1933 105.187 16.74 105.273 16.34 105.46C15.9533 105.633 15.6467 105.887 15.42 106.22C15.2067 106.553 15.1 106.96 15.1 107.44C15.1 107.893 15.1933 108.26 15.38 108.54C15.58 108.82 15.86 109.06 16.22 109.26C16.5933 109.447 17.0267 109.62 17.52 109.78C18.0133 109.94 18.56 110.12 19.16 110.32C19.84 110.547 20.44 110.827 20.96 111.16C21.4933 111.48 21.9067 111.893 22.2 112.4C22.5067 112.907 22.66 113.553 22.66 114.34C22.66 115.007 22.48 115.64 22.12 116.24C21.7733 116.827 21.2533 117.307 20.56 117.68C19.8667 118.053 18.9933 118.24 17.94 118.24ZM28.822 118.24C27.8754 118.24 27.0354 118.027 26.302 117.6C25.5687 117.16 24.9887 116.547 24.562 115.76C24.1487 114.973 23.942 114.053 23.942 113C23.942 111.947 24.1487 111.033 24.562 110.26C24.9754 109.473 25.5487 108.867 26.282 108.44C27.0287 108 27.8887 107.78 28.862 107.78C29.8354 107.78 30.6687 108 31.362 108.44C32.0554 108.867 32.582 109.433 32.942 110.14C33.3154 110.847 33.502 111.62 33.502 112.46C33.502 112.593 33.502 112.733 33.502 112.88C33.502 113.027 33.4954 113.193 33.482 113.38H25.202V112.08H31.842C31.8154 111.173 31.5154 110.467 30.942 109.96C30.382 109.453 29.6754 109.2 28.822 109.2C28.2487 109.2 27.7154 109.327 27.222 109.58C26.7287 109.833 26.3287 110.207 26.022 110.7C25.7287 111.193 25.582 111.807 25.582 112.54V113.1C25.582 113.927 25.7354 114.62 26.042 115.18C26.3487 115.727 26.7487 116.14 27.242 116.42C27.7354 116.687 28.262 116.82 28.822 116.82C29.5154 116.82 30.0887 116.667 30.542 116.36C31.0087 116.04 31.3487 115.607 31.562 115.06H33.222C33.0487 115.66 32.762 116.2 32.362 116.68C31.9754 117.16 31.482 117.54 30.882 117.82C30.2954 118.1 29.6087 118.24 28.822 118.24ZM35.1487 118V108.02H36.6687L36.7687 109.78C37.0887 109.167 37.5487 108.68 38.1487 108.32C38.7487 107.96 39.4287 107.78 40.1887 107.78C40.9754 107.78 41.6554 107.94 42.2287 108.26C42.8021 108.567 43.2487 109.04 43.5687 109.68C43.8887 110.32 44.0487 111.127 44.0487 112.1V118H42.3687V112.28C42.3687 111.267 42.1421 110.507 41.6887 110C41.2487 109.48 40.6221 109.22 39.8087 109.22C39.2354 109.22 38.7221 109.36 38.2687 109.64C37.8287 109.907 37.4754 110.307 37.2087 110.84C36.9554 111.36 36.8287 112 36.8287 112.76V118H35.1487ZM49.9536 118C49.3536 118 48.8336 117.907 48.3936 117.72C47.9536 117.533 47.6136 117.22 47.3736 116.78C47.1469 116.327 47.0336 115.72 47.0336 114.96V109.44H45.2936V108.02H47.0336L47.2536 105.62H48.7136V108.02H51.6336V109.44H48.7136V114.96C48.7136 115.587 48.8403 116.013 49.0936 116.24C49.3469 116.453 49.7936 116.56 50.4336 116.56H51.4936V118H49.9536ZM57.3736 118.24C56.4269 118.24 55.5869 118.027 54.8536 117.6C54.1203 117.16 53.5403 116.547 53.1136 115.76C52.7003 114.973 52.4936 114.053 52.4936 113C52.4936 111.947 52.7003 111.033 53.1136 110.26C53.5269 109.473 54.1003 108.867 54.8336 108.44C55.5803 108 56.4403 107.78 57.4136 107.78C58.3869 107.78 59.2203 108 59.9136 108.44C60.6069 108.867 61.1336 109.433 61.4936 110.14C61.8669 110.847 62.0536 111.62 62.0536 112.46C62.0536 112.593 62.0536 112.733 62.0536 112.88C62.0536 113.027 62.0469 113.193 62.0336 113.38H53.7536V112.08H60.3936C60.3669 111.173 60.0669 110.467 59.4936 109.96C58.9336 109.453 58.2269 109.2 57.3736 109.2C56.8003 109.2 56.2669 109.327 55.7736 109.58C55.2803 109.833 54.8803 110.207 54.5736 110.7C54.2803 111.193 54.1336 111.807 54.1336 112.54V113.1C54.1336 113.927 54.2869 114.62 54.5936 115.18C54.9003 115.727 55.3003 116.14 55.7936 116.42C56.2869 116.687 56.8136 116.82 57.3736 116.82C58.0669 116.82 58.6403 116.667 59.0936 116.36C59.5603 116.04 59.9003 115.607 60.1136 115.06H61.7736C61.6003 115.66 61.3136 116.2 60.9136 116.68C60.5269 117.16 60.0336 117.54 59.4336 117.82C58.8469 118.1 58.1603 118.24 57.3736 118.24ZM63.7003 118V108.02H65.2203L65.3203 109.78C65.6403 109.167 66.1003 108.68 66.7003 108.32C67.3003 107.96 67.9803 107.78 68.7403 107.78C69.527 107.78 70.207 107.94 70.7803 108.26C71.3536 108.567 71.8003 109.04 72.1203 109.68C72.4403 110.32 72.6003 111.127 72.6003 112.1V118H70.9203V112.28C70.9203 111.267 70.6936 110.507 70.2403 110C69.8003 109.48 69.1736 109.22 68.3603 109.22C67.787 109.22 67.2736 109.36 66.8203 109.64C66.3803 109.907 66.027 110.307 65.7603 110.84C65.507 111.36 65.3803 112 65.3803 112.76V118H63.7003ZM79.1252 118.24C78.1785 118.24 77.3252 118.02 76.5652 117.58C75.8185 117.14 75.2252 116.533 74.7852 115.76C74.3585 114.973 74.1452 114.06 74.1452 113.02C74.1452 111.967 74.3585 111.053 74.7852 110.28C75.2252 109.493 75.8185 108.88 76.5652 108.44C77.3252 108 78.1785 107.78 79.1252 107.78C80.3118 107.78 81.3052 108.087 82.1052 108.7C82.9052 109.313 83.4118 110.14 83.6252 111.18H81.9052C81.7718 110.553 81.4452 110.073 80.9252 109.74C80.4052 109.393 79.7985 109.22 79.1052 109.22C78.5452 109.22 78.0185 109.36 77.5252 109.64C77.0318 109.92 76.6318 110.347 76.3252 110.92C76.0185 111.48 75.8652 112.173 75.8652 113C75.8652 113.627 75.9518 114.18 76.1252 114.66C76.3118 115.127 76.5518 115.527 76.8452 115.86C77.1518 116.18 77.4985 116.42 77.8852 116.58C78.2852 116.74 78.6918 116.82 79.1052 116.82C79.5718 116.82 79.9985 116.747 80.3852 116.6C80.7718 116.44 81.0985 116.213 81.3652 115.92C81.6318 115.613 81.8118 115.253 81.9052 114.84H83.6252C83.4118 115.853 82.9052 116.673 82.1052 117.3C81.3052 117.927 80.3118 118.24 79.1252 118.24ZM89.8509 118.24C88.9043 118.24 88.0643 118.027 87.3309 117.6C86.5976 117.16 86.0176 116.547 85.5909 115.76C85.1776 114.973 84.9709 114.053 84.9709 113C84.9709 111.947 85.1776 111.033 85.5909 110.26C86.0043 109.473 86.5776 108.867 87.3109 108.44C88.0576 108 88.9176 107.78 89.8909 107.78C90.8643 107.78 91.6976 108 92.3909 108.44C93.0843 108.867 93.6109 109.433 93.9709 110.14C94.3443 110.847 94.5309 111.62 94.5309 112.46C94.5309 112.593 94.5309 112.733 94.5309 112.88C94.5309 113.027 94.5243 113.193 94.5109 113.38H86.2309V112.08H92.8709C92.8443 111.173 92.5443 110.467 91.9709 109.96C91.4109 109.453 90.7043 109.2 89.8509 109.2C89.2776 109.2 88.7443 109.327 88.2509 109.58C87.7576 109.833 87.3576 110.207 87.0509 110.7C86.7576 111.193 86.6109 111.807 86.6109 112.54V113.1C86.6109 113.927 86.7643 114.62 87.0709 115.18C87.3776 115.727 87.7776 116.14 88.2709 116.42C88.7643 116.687 89.2909 116.82 89.8509 116.82C90.5443 116.82 91.1176 116.667 91.5709 116.36C92.0376 116.04 92.3776 115.607 92.5909 115.06H94.2509C94.0776 115.66 93.7909 116.2 93.3909 116.68C93.0043 117.16 92.5109 117.54 91.9109 117.82C91.3243 118.1 90.6376 118.24 89.8509 118.24ZM107.091 118.24C105.717 118.24 104.531 117.94 103.531 117.34C102.544 116.727 101.777 115.88 101.231 114.8C100.697 113.707 100.431 112.44 100.431 111C100.431 109.56 100.697 108.3 101.231 107.22C101.777 106.127 102.544 105.28 103.531 104.68C104.531 104.067 105.717 103.76 107.091 103.76C108.704 103.76 110.011 104.14 111.011 104.9C112.011 105.66 112.651 106.733 112.931 108.12H111.071C110.857 107.253 110.424 106.56 109.771 106.04C109.117 105.507 108.224 105.24 107.091 105.24C106.091 105.24 105.217 105.473 104.471 105.94C103.737 106.393 103.164 107.053 102.751 107.92C102.351 108.773 102.151 109.8 102.151 111C102.151 112.2 102.351 113.233 102.751 114.1C103.164 114.953 103.737 115.613 104.471 116.08C105.217 116.533 106.091 116.76 107.091 116.76C108.224 116.76 109.117 116.507 109.771 116C110.424 115.48 110.857 114.793 111.071 113.94H112.931C112.651 115.287 112.011 116.34 111.011 117.1C110.011 117.86 108.704 118.24 107.091 118.24ZM119.166 118.24C118.232 118.24 117.392 118.027 116.646 117.6C115.899 117.173 115.306 116.567 114.866 115.78C114.439 114.993 114.226 114.073 114.226 113.02C114.226 111.953 114.446 111.027 114.886 110.24C115.326 109.453 115.919 108.847 116.666 108.42C117.426 107.993 118.272 107.78 119.206 107.78C120.152 107.78 120.999 107.993 121.746 108.42C122.492 108.847 123.079 109.453 123.506 110.24C123.932 111.027 124.146 111.953 124.146 113.02C124.146 114.073 123.926 114.993 123.486 115.78C123.059 116.567 122.466 117.173 121.706 117.6C120.959 118.027 120.112 118.24 119.166 118.24ZM119.166 116.8C119.752 116.8 120.292 116.66 120.786 116.38C121.279 116.1 121.672 115.68 121.966 115.12C122.272 114.547 122.426 113.84 122.426 113C122.426 112.16 122.279 111.46 121.986 110.9C121.692 110.34 121.299 109.92 120.806 109.64C120.312 109.36 119.779 109.22 119.206 109.22C118.646 109.22 118.112 109.36 117.606 109.64C117.112 109.92 116.712 110.34 116.406 110.9C116.099 111.46 115.946 112.167 115.946 113.02C115.946 113.847 116.099 114.547 116.406 115.12C116.712 115.68 117.106 116.1 117.586 116.38C118.079 116.66 118.606 116.8 119.166 116.8ZM129.541 118.24C128.768 118.24 128.088 118.087 127.501 117.78C126.928 117.46 126.481 116.98 126.161 116.34C125.854 115.7 125.701 114.893 125.701 113.92V108.02H127.381V113.74C127.381 114.753 127.594 115.52 128.021 116.04C128.461 116.547 129.094 116.8 129.921 116.8C130.481 116.8 130.988 116.667 131.441 116.4C131.894 116.12 132.248 115.72 132.501 115.2C132.768 114.667 132.901 114.02 132.901 113.26V108.02H134.581V118H133.061L132.961 116.24C132.654 116.853 132.194 117.34 131.581 117.7C130.981 118.06 130.301 118.24 129.541 118.24ZM136.766 118V108.02H138.286L138.386 109.78C138.706 109.167 139.166 108.68 139.766 108.32C140.366 107.96 141.046 107.78 141.806 107.78C142.593 107.78 143.273 107.94 143.846 108.26C144.419 108.567 144.866 109.04 145.186 109.68C145.506 110.32 145.666 111.127 145.666 112.1V118H143.986V112.28C143.986 111.267 143.759 110.507 143.306 110C142.866 109.48 142.239 109.22 141.426 109.22C140.853 109.22 140.339 109.36 139.886 109.64C139.446 109.907 139.093 110.307 138.826 110.84C138.573 111.36 138.446 112 138.446 112.76V118H136.766ZM151.571 118C150.971 118 150.451 117.907 150.011 117.72C149.571 117.533 149.231 117.22 148.991 116.78C148.764 116.327 148.651 115.72 148.651 114.96V109.44H146.911V108.02H148.651L148.871 105.62H150.331V108.02H153.251V109.44H150.331V114.96C150.331 115.587 150.457 116.013 150.711 116.24C150.964 116.453 151.411 116.56 152.051 116.56H153.111V118H151.571Z" fill="#12131A"/>
</g>
<defs>
<clipPath id="clip0_210_974">
<path d="M0 12C0 5.37258 5.37258 0 12 0H212C218.627 0 224 5.37258 224 12V138C224 144.627 218.627 150 212 150H12C5.37258 150 0 144.627 0 138V12Z" fill="white"/>
</clipPath>
<clipPath id="clip1_210_974">
<rect width="150" height="150" fill="white" transform="translate(144.333)"/>
</clipPath>
</defs>
</svg>
