<svg width="224" height="150" viewBox="0 0 224 150" fill="none" xmlns="http://www.w3.org/2000/svg">
<g clip-path="url(#clip0_210_965)">
<path d="M0 12C0 5.37258 5.37258 0 12 0H212C218.627 0 224 5.37258 224 12V138C224 144.627 218.627 150 212 150H12C5.37258 150 0 144.627 0 138V12Z" fill="#FF9F00"/>
<g clip-path="url(#clip1_210_965)">
<mask id="mask0_210_965" style="mask-type:luminance" maskUnits="userSpaceOnUse" x="144" y="0" width="151" height="151">
<path d="M294.667 0.00012207H144.667V150H294.667V0.00012207Z" fill="white"/>
</mask>
<g mask="url(#mask0_210_965)">
<path fill-rule="evenodd" clip-rule="evenodd" d="M144.667 0.00012207H194.667V50.0001H144.667V0.00012207ZM244.666 50.0001H194.667V99.9999H144.667V150H194.667V99.9999H244.666V150H294.667V99.9999H244.666V50.0001ZM244.666 50.0001H294.667V0.00012207H244.666V50.0001Z" fill="#FFB844"/>
</g>
</g>
<path d="M30.368 79.768C27.4667 79.768 24.8 79.2347 22.368 78.168C19.936 77.1013 17.9947 75.48 16.544 73.304C15.0933 71.128 14.3253 68.376 14.24 65.048H22.688C22.7307 66.456 23.0507 67.736 23.648 68.888C24.288 69.9973 25.1627 70.8933 26.272 71.576C27.424 72.216 28.7893 72.536 30.368 72.536C31.8613 72.536 33.1413 72.2373 34.208 71.64C35.2747 71.0427 36.0853 70.2533 36.64 69.272C37.1947 68.2907 37.472 67.16 37.472 65.88C37.472 64.344 37.1093 63.0853 36.384 62.104C35.6587 61.08 34.6347 60.312 33.312 59.8C32.032 59.2453 30.5387 58.968 28.832 58.968H25.504V51.864H28.832C30.9227 51.864 32.672 51.3947 34.08 50.456C35.488 49.4747 36.192 48.0027 36.192 46.04C36.192 44.4613 35.6587 43.1813 34.592 42.2C33.568 41.2187 32.1387 40.728 30.304 40.728C28.2987 40.728 26.72 41.3253 25.568 42.52C24.4587 43.7147 23.84 45.1867 23.712 46.936H15.328C15.456 44.12 16.16 41.7093 17.44 39.704C18.72 37.656 20.448 36.0987 22.624 35.032C24.8427 33.9653 27.424 33.432 30.368 33.432C33.44 33.432 36.0427 33.9867 38.176 35.096C40.3093 36.1627 41.9307 37.6133 43.04 39.448C44.1493 41.24 44.704 43.224 44.704 45.4C44.704 47.1067 44.3627 48.6427 43.68 50.008C43.04 51.3307 42.1653 52.44 41.056 53.336C39.9893 54.232 38.7947 54.8933 37.472 55.32C39.136 55.6187 40.5867 56.2587 41.824 57.24C43.104 58.2213 44.1067 59.48 44.832 61.016C45.5573 62.5093 45.92 64.2373 45.92 66.2C45.92 68.632 45.3227 70.8933 44.128 72.984C42.9333 75.032 41.184 76.6747 38.88 77.912C36.576 79.1493 33.7387 79.768 30.368 79.768ZM64.1015 79.768C60.9868 79.768 58.3415 79.1707 56.1655 77.976C53.9895 76.7387 52.3042 75.1173 51.1095 73.112C49.9148 71.1067 49.2108 68.9733 48.9975 66.712H56.9975C57.3815 68.632 58.1922 70.104 59.4295 71.128C60.6668 72.152 62.2455 72.664 64.1655 72.664C66.0002 72.664 67.5788 72.1093 68.9015 71C70.2668 69.8907 71.3548 68.2267 72.1655 66.008C72.9762 63.7893 73.4242 61.016 73.5095 57.688C73.5095 57.6027 73.5095 57.5387 73.5095 57.496C73.5095 57.4107 73.5095 57.3467 73.5095 57.304C72.8268 58.4133 71.9095 59.416 70.7575 60.312C69.6055 61.208 68.3042 61.912 66.8535 62.424C65.4028 62.936 63.8882 63.192 62.3095 63.192C59.8775 63.192 57.5522 62.5947 55.3335 61.4C53.1575 60.2053 51.3868 58.52 50.0215 56.344C48.6988 54.168 48.0375 51.5867 48.0375 48.6C48.0375 45.8693 48.6988 43.352 50.0215 41.048C51.3442 38.744 53.1788 36.9093 55.5255 35.544C57.9148 34.136 60.6668 33.432 63.7815 33.432C67.1948 33.432 70.0535 34.072 72.3575 35.352C74.7042 36.5893 76.5602 38.2533 77.9255 40.344C79.3335 42.4347 80.3575 44.76 80.9975 47.32C81.6375 49.88 81.9575 52.4827 81.9575 55.128C81.9575 60.12 81.2322 64.472 79.7815 68.184C78.3735 71.8533 76.3468 74.712 73.7015 76.76C71.0562 78.7653 67.8562 79.768 64.1015 79.768ZM64.3575 55.896C65.8935 55.896 67.2588 55.576 68.4535 54.936C69.6482 54.2533 70.6082 53.3573 71.3335 52.248C72.0588 51.096 72.4215 49.816 72.4215 48.408C72.4215 46.9573 72.0588 45.656 71.3335 44.504C70.6082 43.352 69.6268 42.456 68.3895 41.816C67.1948 41.176 65.8295 40.856 64.2935 40.856C62.7575 40.856 61.3922 41.176 60.1975 41.816C59.0028 42.456 58.0642 43.3307 57.3815 44.44C56.6988 45.5493 56.3575 46.8507 56.3575 48.344C56.3575 49.8373 56.6988 51.16 57.3815 52.312C58.0642 53.4213 59.0028 54.296 60.1975 54.936C61.4348 55.576 62.8215 55.896 64.3575 55.896Z" fill="#12131A"/>
<path d="M16.36 118L12.52 104H14.32L17.34 116L20.78 104H22.64L25.98 116.04L29.04 104H30.84L26.92 118H25L21.66 106.42L18.24 118H16.36ZM35.6203 118.24C34.687 118.24 33.847 118.027 33.1003 117.6C32.3536 117.173 31.7603 116.567 31.3203 115.78C30.8936 114.993 30.6803 114.073 30.6803 113.02C30.6803 111.953 30.9003 111.027 31.3403 110.24C31.7803 109.453 32.3736 108.847 33.1203 108.42C33.8803 107.993 34.727 107.78 35.6603 107.78C36.607 107.78 37.4536 107.993 38.2003 108.42C38.947 108.847 39.5336 109.453 39.9603 110.24C40.387 111.027 40.6003 111.953 40.6003 113.02C40.6003 114.073 40.3803 114.993 39.9403 115.78C39.5136 116.567 38.9203 117.173 38.1603 117.6C37.4136 118.027 36.567 118.24 35.6203 118.24ZM35.6203 116.8C36.207 116.8 36.747 116.66 37.2403 116.38C37.7336 116.1 38.127 115.68 38.4203 115.12C38.727 114.547 38.8803 113.84 38.8803 113C38.8803 112.16 38.7336 111.46 38.4403 110.9C38.147 110.34 37.7536 109.92 37.2603 109.64C36.767 109.36 36.2336 109.22 35.6603 109.22C35.1003 109.22 34.567 109.36 34.0603 109.64C33.567 109.92 33.167 110.34 32.8603 110.9C32.5536 111.46 32.4003 112.167 32.4003 113.02C32.4003 113.847 32.5536 114.547 32.8603 115.12C33.167 115.68 33.5603 116.1 34.0403 116.38C34.5336 116.66 35.0603 116.8 35.6203 116.8ZM42.3558 118V108.02H43.8758L44.0158 109.94C44.2291 109.487 44.5091 109.1 44.8558 108.78C45.2158 108.46 45.6358 108.213 46.1158 108.04C46.6091 107.867 47.1691 107.78 47.7958 107.78V109.54H47.2758C46.8358 109.54 46.4158 109.6 46.0158 109.72C45.6291 109.827 45.2824 110.007 44.9758 110.26C44.6824 110.513 44.4491 110.86 44.2758 111.3C44.1158 111.727 44.0358 112.267 44.0358 112.92V118H42.3558ZM53.1889 118.24C52.2156 118.24 51.3556 118.013 50.6089 117.56C49.8756 117.107 49.3022 116.487 48.8889 115.7C48.4889 114.9 48.2889 113.993 48.2889 112.98C48.2889 111.98 48.4889 111.087 48.8889 110.3C49.3022 109.513 49.8822 108.9 50.6289 108.46C51.3756 108.007 52.2356 107.78 53.2089 107.78C54.0222 107.78 54.7422 107.947 55.3689 108.28C56.0089 108.613 56.4956 109.08 56.8289 109.68V103.6H58.5089V118H56.9889L56.8289 116.36C56.6156 116.68 56.3422 116.987 56.0089 117.28C55.6756 117.56 55.2756 117.793 54.8089 117.98C54.3422 118.153 53.8022 118.24 53.1889 118.24ZM53.3889 116.78C54.0556 116.78 54.6422 116.627 55.1489 116.32C55.6556 116 56.0489 115.56 56.3289 115C56.6222 114.427 56.7689 113.76 56.7689 113C56.7689 112.253 56.6222 111.6 56.3289 111.04C56.0489 110.467 55.6556 110.027 55.1489 109.72C54.6422 109.4 54.0556 109.24 53.3889 109.24C52.7356 109.24 52.1489 109.4 51.6289 109.72C51.1222 110.027 50.7222 110.467 50.4289 111.04C50.1489 111.6 50.0089 112.253 50.0089 113C50.0089 113.76 50.1489 114.427 50.4289 115C50.7222 115.56 51.1222 116 51.6289 116.32C52.1489 116.627 52.7356 116.78 53.3889 116.78ZM71.5805 118.24C70.2071 118.24 69.0205 117.94 68.0205 117.34C67.0338 116.727 66.2671 115.88 65.7205 114.8C65.1871 113.707 64.9205 112.44 64.9205 111C64.9205 109.56 65.1871 108.3 65.7205 107.22C66.2671 106.127 67.0338 105.28 68.0205 104.68C69.0205 104.067 70.2071 103.76 71.5805 103.76C73.1938 103.76 74.5005 104.14 75.5005 104.9C76.5005 105.66 77.1405 106.733 77.4205 108.12H75.5605C75.3471 107.253 74.9138 106.56 74.2605 106.04C73.6071 105.507 72.7138 105.24 71.5805 105.24C70.5805 105.24 69.7071 105.473 68.9605 105.94C68.2271 106.393 67.6538 107.053 67.2405 107.92C66.8405 108.773 66.6405 109.8 66.6405 111C66.6405 112.2 66.8405 113.233 67.2405 114.1C67.6538 114.953 68.2271 115.613 68.9605 116.08C69.7071 116.533 70.5805 116.76 71.5805 116.76C72.7138 116.76 73.6071 116.507 74.2605 116C74.9138 115.48 75.3471 114.793 75.5605 113.94H77.4205C77.1405 115.287 76.5005 116.34 75.5005 117.1C74.5005 117.86 73.1938 118.24 71.5805 118.24ZM83.6555 118.24C82.7221 118.24 81.8821 118.027 81.1355 117.6C80.3888 117.173 79.7955 116.567 79.3555 115.78C78.9288 114.993 78.7155 114.073 78.7155 113.02C78.7155 111.953 78.9355 111.027 79.3755 110.24C79.8155 109.453 80.4088 108.847 81.1555 108.42C81.9155 107.993 82.7621 107.78 83.6955 107.78C84.6421 107.78 85.4888 107.993 86.2355 108.42C86.9821 108.847 87.5688 109.453 87.9955 110.24C88.4221 111.027 88.6355 111.953 88.6355 113.02C88.6355 114.073 88.4155 114.993 87.9755 115.78C87.5488 116.567 86.9555 117.173 86.1955 117.6C85.4488 118.027 84.6021 118.24 83.6555 118.24ZM83.6555 116.8C84.2421 116.8 84.7821 116.66 85.2755 116.38C85.7688 116.1 86.1621 115.68 86.4555 115.12C86.7621 114.547 86.9155 113.84 86.9155 113C86.9155 112.16 86.7688 111.46 86.4755 110.9C86.1821 110.34 85.7888 109.92 85.2955 109.64C84.8021 109.36 84.2688 109.22 83.6955 109.22C83.1355 109.22 82.6021 109.36 82.0955 109.64C81.6021 109.92 81.2021 110.34 80.8955 110.9C80.5888 111.46 80.4355 112.167 80.4355 113.02C80.4355 113.847 80.5888 114.547 80.8955 115.12C81.2021 115.68 81.5955 116.1 82.0755 116.38C82.5688 116.66 83.0955 116.8 83.6555 116.8ZM94.0309 118.24C93.2576 118.24 92.5776 118.087 91.9909 117.78C91.4176 117.46 90.9709 116.98 90.6509 116.34C90.3443 115.7 90.1909 114.893 90.1909 113.92V108.02H91.8709V113.74C91.8709 114.753 92.0843 115.52 92.5109 116.04C92.9509 116.547 93.5843 116.8 94.4109 116.8C94.9709 116.8 95.4776 116.667 95.9309 116.4C96.3843 116.12 96.7376 115.72 96.9909 115.2C97.2576 114.667 97.3909 114.02 97.3909 113.26V108.02H99.0709V118H97.5509L97.4509 116.24C97.1443 116.853 96.6843 117.34 96.0709 117.7C95.4709 118.06 94.7909 118.24 94.0309 118.24ZM101.256 118V108.02H102.776L102.876 109.78C103.196 109.167 103.656 108.68 104.256 108.32C104.856 107.96 105.536 107.78 106.296 107.78C107.082 107.78 107.762 107.94 108.336 108.26C108.909 108.567 109.356 109.04 109.676 109.68C109.996 110.32 110.156 111.127 110.156 112.1V118H108.476V112.28C108.476 111.267 108.249 110.507 107.796 110C107.356 109.48 106.729 109.22 105.916 109.22C105.342 109.22 104.829 109.36 104.376 109.64C103.936 109.907 103.582 110.307 103.316 110.84C103.062 111.36 102.936 112 102.936 112.76V118H101.256ZM116.061 118C115.461 118 114.941 117.907 114.501 117.72C114.061 117.533 113.721 117.22 113.481 116.78C113.254 116.327 113.141 115.72 113.141 114.96V109.44H111.401V108.02H113.141L113.361 105.62H114.821V108.02H117.741V109.44H114.821V114.96C114.821 115.587 114.947 116.013 115.201 116.24C115.454 116.453 115.901 116.56 116.541 116.56H117.601V118H116.061Z" fill="#12131A"/>
</g>
<defs>
<clipPath id="clip0_210_965">
<path d="M0 12C0 5.37258 5.37258 0 12 0H212C218.627 0 224 5.37258 224 12V138C224 144.627 218.627 150 212 150H12C5.37258 150 0 144.627 0 138V12Z" fill="white"/>
</clipPath>
<clipPath id="clip1_210_965">
<rect width="150" height="150" fill="white" transform="translate(144.667 0.00012207)"/>
</clipPath>
</defs>
</svg>
